<svg xmlns="http://www.w3.org/2000/svg" height="511.99998pt" version="1.1" viewBox="1 1 511.99998 511.99998" width="511.99998pt">
<g id="surface1">
<path d="M 256 397.242188 L 256 450.207031 C 363.257812 450.207031 450.207031 363.257812 450.207031 256 L 397.242188 256 C 397.148438 333.96875 333.96875 397.148438 256 397.242188 Z M 256 397.242188 " style=" stroke:none;fill-rule:nonzero;fill:rgb(23.921569%,60.392157%,88.627451%);fill-opacity:1;" />
<path d="M 114.757812 256 C 114.851562 178.03125 178.03125 114.851562 256 114.757812 L 256 61.792969 C 148.742188 61.792969 61.792969 148.742188 61.792969 256 Z M 114.757812 256 " style=" stroke:none;fill-rule:nonzero;fill:rgb(58.823529%,78.431373%,93.72549%);fill-opacity:1;" />
<path d="M 397.242188 256 L 450.207031 256 C 450.207031 148.742188 363.257812 61.792969 256 61.792969 L 256 114.757812 C 333.96875 114.851562 397.148438 178.03125 397.242188 256 Z M 397.242188 256 " style=" stroke:none;fill-rule:nonzero;fill:rgb(10.196078%,43.529412%,69.019608%);fill-opacity:1;" />
<path d="M 114.757812 256 L 61.792969 256 C 61.792969 363.257812 148.742188 450.207031 256 450.207031 L 256 397.242188 C 178.03125 397.148438 114.851562 333.96875 114.757812 256 Z M 114.757812 256 " style=" stroke:none;fill-rule:nonzero;fill:rgb(23.921569%,60.392157%,88.627451%);fill-opacity:1;" />
<path d="M 256 167.722656 L 256 114.757812 C 178.03125 114.851562 114.851562 178.03125 114.757812 256 L 167.722656 256 C 167.777344 207.269531 207.269531 167.777344 256 167.722656 Z M 256 167.722656 " style=" stroke:none;fill-rule:nonzero;fill:rgb(47.058824%,72.54902%,92.156863%);fill-opacity:1;" />
<path d="M 344.277344 256 L 397.242188 256 C 397.148438 178.03125 333.96875 114.851562 256 114.757812 L 256 167.722656 C 304.730469 167.777344 344.222656 207.269531 344.277344 256 Z M 344.277344 256 " style=" stroke:none;fill-rule:nonzero;fill:rgb(11.764706%,50.588235%,80.784314%);fill-opacity:1;" />
<path d="M 256 344.277344 L 256 397.242188 C 333.964844 397.148438 397.148438 333.96875 397.242188 256 L 344.273438 256 C 344.222656 304.730469 304.730469 344.222656 256 344.277344 Z M 256 344.277344 " style=" stroke:none;fill-rule:nonzero;fill:rgb(35.294118%,66.666667%,90.588235%);fill-opacity:1;" />
<path d="M 256 397.242188 L 256 344.273438 C 207.269531 344.222656 167.777344 304.730469 167.722656 256 L 114.757812 256 C 114.851562 333.96875 178.03125 397.148438 256 397.242188 Z M 256 397.242188 " style=" stroke:none;fill-rule:nonzero;fill:rgb(11.764706%,50.588235%,80.784314%);fill-opacity:1;" />
<path d="M 256 229.515625 L 256 167.722656 C 207.269531 167.777344 167.777344 207.269531 167.722656 256 L 229.515625 256 C 229.515625 241.375 241.375 229.515625 256 229.515625 Z M 256 229.515625 " style=" stroke:none;fill-rule:nonzero;fill:rgb(35.294118%,66.666667%,90.588235%);fill-opacity:1;" />
<path d="M 282.484375 256 L 344.277344 256 C 344.222656 207.269531 304.730469 167.777344 256 167.722656 L 256 229.515625 C 270.625 229.515625 282.484375 241.375 282.484375 256 Z M 282.484375 256 " style=" stroke:none;fill-rule:nonzero;fill:rgb(23.921569%,60.392157%,88.627451%);fill-opacity:1;" />
<path d="M 344.277344 256 L 282.484375 256 C 282.484375 270.625 270.625 282.480469 256 282.480469 L 256 344.273438 C 304.730469 344.222656 344.222656 304.730469 344.277344 256 Z M 344.277344 256 " style=" stroke:none;fill-rule:nonzero;fill:rgb(58.823529%,78.431373%,93.72549%);fill-opacity:1;" />
<path d="M 229.515625 256 L 167.722656 256 C 167.777344 304.730469 207.269531 344.222656 256 344.273438 L 256 282.480469 C 241.375 282.484375 229.515625 270.625 229.515625 256 Z M 229.515625 256 " style=" stroke:none;fill-rule:nonzero;fill:rgb(10.196078%,43.529412%,69.019608%);fill-opacity:1;" />
<path d="M 282.480469 256 C 282.480469 270.625 270.625 282.480469 256 282.480469 C 241.375 282.480469 229.515625 270.625 229.515625 256 C 229.515625 241.375 241.375 229.515625 256 229.515625 C 270.625 229.515625 282.480469 241.375 282.480469 256 Z M 282.480469 256 " style=" stroke:none;fill-rule:nonzero;fill:rgb(76.078431%,87.45098%,96.470588%);fill-opacity:1;" />
<path d="M 70.621094 52.964844 C 70.621094 62.714844 62.714844 70.621094 52.964844 70.621094 C 43.214844 70.621094 35.3125 62.714844 35.3125 52.964844 C 35.3125 43.214844 43.214844 35.3125 52.964844 35.3125 C 62.714844 35.3125 70.621094 43.214844 70.621094 52.964844 Z M 70.621094 52.964844 " style=" stroke:none;fill-rule:nonzero;fill:rgb(10.196078%,43.529412%,69.019608%);fill-opacity:1;" />
<path d="M 476.6875 52.964844 C 476.6875 62.714844 468.785156 70.621094 459.035156 70.621094 C 449.285156 70.621094 441.378906 62.714844 441.378906 52.964844 C 441.378906 43.214844 449.285156 35.3125 459.035156 35.3125 C 468.785156 35.3125 476.6875 43.214844 476.6875 52.964844 Z M 476.6875 52.964844 " style=" stroke:none;fill-rule:nonzero;fill:rgb(10.196078%,43.529412%,69.019608%);fill-opacity:1;" />
<path d="M 70.621094 459.035156 C 70.621094 468.785156 62.714844 476.6875 52.964844 476.6875 C 43.214844 476.6875 35.3125 468.785156 35.3125 459.035156 C 35.3125 449.285156 43.214844 441.378906 52.964844 441.378906 C 62.714844 441.378906 70.621094 449.285156 70.621094 459.035156 Z M 70.621094 459.035156 " style=" stroke:none;fill-rule:nonzero;fill:rgb(10.196078%,43.529412%,69.019608%);fill-opacity:1;" />
<path d="M 476.6875 459.035156 C 476.6875 468.785156 468.785156 476.6875 459.035156 476.6875 C 449.285156 476.6875 441.378906 468.785156 441.378906 459.035156 C 441.378906 449.285156 449.285156 441.378906 459.035156 441.378906 C 468.785156 441.378906 476.6875 449.285156 476.6875 459.035156 Z M 476.6875 459.035156 " style=" stroke:none;fill-rule:nonzero;fill:rgb(10.196078%,43.529412%,69.019608%);fill-opacity:1;" />
<path d="M 61.792969 256 C 61.792969 148.742188 148.742188 61.792969 256 61.792969 L 256 0 L 0 0 L 0 512 L 256 512 L 256 450.207031 C 148.742188 450.207031 61.792969 363.257812 61.792969 256 Z M 52.964844 35.3125 C 62.714844 35.3125 70.621094 43.214844 70.621094 52.964844 C 70.621094 62.714844 62.714844 70.621094 52.964844 70.621094 C 43.214844 70.621094 35.3125 62.714844 35.3125 52.964844 C 35.3125 43.214844 43.214844 35.3125 52.964844 35.3125 Z M 52.964844 476.6875 C 43.214844 476.6875 35.3125 468.785156 35.3125 459.035156 C 35.3125 449.285156 43.214844 441.378906 52.964844 441.378906 C 62.714844 441.378906 70.621094 449.285156 70.621094 459.035156 C 70.621094 468.785156 62.714844 476.6875 52.964844 476.6875 Z M 52.964844 476.6875 " style=" stroke:none;fill-rule:nonzero;fill:rgb(76.078431%,87.45098%,96.470588%);fill-opacity:1;" />
<path d="M 512 0 L 256 0 L 256 61.792969 C 363.257812 61.792969 450.207031 148.742188 450.207031 256 C 450.207031 363.257812 363.257812 450.207031 256 450.207031 L 256 512 L 512 512 Z M 459.035156 476.6875 C 449.285156 476.6875 441.378906 468.785156 441.378906 459.035156 C 441.378906 449.285156 449.285156 441.378906 459.035156 441.378906 C 468.785156 441.378906 476.6875 449.285156 476.6875 459.035156 C 476.6875 468.785156 468.785156 476.6875 459.035156 476.6875 Z M 459.035156 70.621094 C 449.285156 70.621094 441.378906 62.714844 441.378906 52.964844 C 441.378906 43.214844 449.285156 35.308594 459.035156 35.308594 C 468.785156 35.308594 476.6875 43.214844 476.6875 52.964844 C 476.6875 62.714844 468.785156 70.621094 459.035156 70.621094 Z M 459.035156 70.621094 " style=" stroke:none;fill-rule:nonzero;fill:rgb(81.960784%,90.588235%,97.254902%);fill-opacity:1;" />
</g>
</svg>