<svg xmlns="http://www.w3.org/2000/svg" height="511.99998pt" version="1.1" viewBox="1 1 511.99998 511.99998" width="511.99998pt">
<g id="surface1">
<path d="M 388.414062 247.171875 L 494.34375 247.171875 L 494.34375 282.484375 L 388.414062 282.484375 Z M 388.414062 247.171875 " style=" stroke:none;fill-rule:nonzero;fill:rgb(10.196078%,43.529412%,69.019608%);fill-opacity:1;" />
<path d="M 361.929688 52.964844 L 361.929688 0 L 44.136719 0 L 44.136719 52.964844 Z M 361.929688 52.964844 " style=" stroke:none;fill-rule:nonzero;fill:rgb(10.196078%,43.529412%,69.019608%);fill-opacity:1;" />
<path d="M 26.484375 441.378906 L 26.484375 476.6875 L 203.035156 476.6875 L 203.035156 441.378906 Z M 26.484375 441.378906 " style=" stroke:none;fill-rule:nonzero;fill:rgb(11.764706%,50.588235%,80.784314%);fill-opacity:1;" />
<path d="M 0 476.6875 L 0 512 L 229.515625 512 L 229.515625 476.6875 Z M 0 476.6875 " style=" stroke:none;fill-rule:nonzero;fill:rgb(10.196078%,43.529412%,69.019608%);fill-opacity:1;" />
<path d="M 503.171875 450.207031 C 503.171875 416.078125 441.378906 326.621094 441.378906 326.621094 C 441.378906 326.621094 379.585938 416.078125 379.585938 450.207031 C 379.585938 484.335938 407.25 512 441.378906 512 C 475.507812 512 503.171875 484.332031 503.171875 450.207031 Z M 503.171875 450.207031 " style=" stroke:none;fill-rule:nonzero;fill:rgb(0%,42.745098%,94.117647%);fill-opacity:1;" />
<path d="M 44.136719 52.964844 L 114.757812 52.964844 L 114.757812 441.378906 L 44.136719 441.378906 Z M 44.136719 52.964844 " style=" stroke:none;fill-rule:nonzero;fill:rgb(35.294118%,66.666667%,90.588235%);fill-opacity:1;" />
<path d="M 185.378906 158.898438 L 185.378906 52.964844 L 114.757812 52.964844 L 114.757812 441.378906 L 185.378906 441.378906 Z M 185.378906 158.898438 " style=" stroke:none;fill-rule:nonzero;fill:rgb(47.058824%,72.54902%,92.156863%);fill-opacity:1;" />
<path d="M 267.890625 105.929688 C 258.523438 105.929688 249.539062 109.652344 242.917969 116.277344 L 185.378906 173.816406 L 185.378906 388.121094 C 185.378906 378.753906 189.101562 369.773438 195.726562 363.148438 L 301.355469 257.519531 C 307.976562 250.894531 316.960938 247.171875 326.328125 247.171875 L 512 247.171875 L 512 105.929688 Z M 267.890625 105.929688 " style=" stroke:none;fill-rule:nonzero;fill:rgb(11.764706%,50.588235%,80.784314%);fill-opacity:1;" />
</g>
</svg>