<svg xmlns="http://www.w3.org/2000/svg" height="511pt" version="1.1" viewBox="1 1 511 511.99998" width="511pt">
<g id="surface1">
<path d="M 441.878906 79.449219 L 406.566406 79.449219 L 406.566406 291.308594 L 441.878906 291.308594 Z M 441.878906 79.449219 " style=" stroke:none;fill-rule:nonzero;fill:rgb(10.196078%,43.529412%,69.019608%);fill-opacity:1;" />
<path d="M 71.121094 132.414062 C 32.117188 132.414062 0.5 164.03125 0.5 203.035156 L 0.5 308.964844 L 106.429688 308.964844 L 106.429688 256 C 106.460938 246.261719 114.347656 238.375 124.085938 238.34375 L 159.398438 238.34375 L 159.398438 132.414062 Z M 71.121094 132.414062 " style=" stroke:none;fill-rule:nonzero;fill:rgb(23.921569%,60.392157%,88.627451%);fill-opacity:1;" />
<path d="M 353.601562 132.414062 L 406.570312 132.414062 L 406.570312 238.34375 L 353.601562 238.34375 Z M 353.601562 132.414062 " style=" stroke:none;fill-rule:nonzero;fill:rgb(23.921569%,60.392157%,88.627451%);fill-opacity:1;" />
<path d="M 274.15625 35.3125 L 238.84375 35.3125 L 238.84375 105.929688 L 274.15625 105.929688 Z M 274.15625 35.3125 " style=" stroke:none;fill-rule:nonzero;fill:rgb(10.196078%,43.529412%,69.019608%);fill-opacity:1;" />
<path d="M 353.601562 35.3125 L 353.601562 17.65625 C 353.601562 7.90625 345.699219 0 335.949219 0 L 177.050781 0 C 167.300781 0 159.394531 7.90625 159.394531 17.65625 L 159.394531 35.3125 Z M 353.601562 35.3125 " style=" stroke:none;fill-rule:nonzero;fill:rgb(10.196078%,43.529412%,69.019608%);fill-opacity:1;" />
<path d="M 0.5 459.035156 C 0.5 488.285156 24.214844 512 53.464844 512 C 82.71875 512 106.433594 488.285156 106.433594 459.035156 C 106.433594 429.78125 53.464844 353.101562 53.464844 353.101562 C 53.464844 353.101562 0.5 429.78125 0.5 459.035156 Z M 0.5 459.035156 " style=" stroke:none;fill-rule:nonzero;fill:rgb(0%,42.745098%,94.117647%);fill-opacity:1;" />
<path d="M 441.878906 185.378906 L 512.5 185.378906 L 512.5 264.828125 L 441.878906 264.828125 Z M 441.878906 185.378906 " style=" stroke:none;fill-rule:nonzero;fill:rgb(35.294118%,66.666667%,90.588235%);fill-opacity:1;" />
<path d="M 441.878906 105.929688 L 512.5 105.929688 L 512.5 185.378906 L 441.878906 185.378906 Z M 441.878906 105.929688 " style=" stroke:none;fill-rule:nonzero;fill:rgb(47.058824%,72.54902%,92.156863%);fill-opacity:1;" />
<path d="M 159.398438 238.34375 L 159.398438 247.171875 C 159.398438 256.921875 167.300781 264.828125 177.050781 264.828125 L 335.949219 264.828125 C 345.699219 264.828125 353.605469 256.921875 353.605469 247.171875 L 353.605469 185.378906 L 159.398438 185.378906 Z M 159.398438 238.34375 " style=" stroke:none;fill-rule:nonzero;fill:rgb(35.294118%,66.666667%,90.588235%);fill-opacity:1;" />
<path d="M 353.601562 123.585938 C 353.601562 113.835938 345.699219 105.929688 335.949219 105.929688 L 177.050781 105.929688 C 167.300781 105.929688 159.394531 113.835938 159.394531 123.585938 L 159.394531 185.378906 L 353.601562 185.378906 Z M 353.601562 123.585938 " style=" stroke:none;fill-rule:nonzero;fill:rgb(47.058824%,72.54902%,92.156863%);fill-opacity:1;" />
</g>
</svg>