<svg xmlns="http://www.w3.org/2000/svg" height="511pt" version="1.1" viewBox="-17 1 511 511.99998" width="511pt">
<g id="surface1">
<path d="M 176.566406 128.527344 L 402.195312 68.050781 L 383.972656 0 L 176.566406 55.546875 L 176.566406 19.101562 L 35.714844 19.015625 L 35.714844 195.082031 L 176.566406 195.082031 Z M 176.566406 128.527344 " style=" stroke:none;fill-rule:nonzero;fill:rgb(10.196078%,43.529412%,69.019608%);fill-opacity:1;" />
<path d="M 358.132812 316.195312 L 460.167969 288.855469 L 469.28125 322.871094 L 367.246094 350.210938 Z M 358.132812 316.195312 " style=" stroke:none;fill-rule:nonzero;fill:rgb(10.196078%,43.529412%,69.019608%);fill-opacity:1;" />
<path d="M 423.058594 512 C 447.367188 512 467.074219 492.292969 467.074219 467.984375 C 467.074219 443.675781 423.058594 379.949219 423.058594 379.949219 C 423.058594 379.949219 379.042969 443.675781 379.042969 467.984375 C 379.042969 492.292969 398.75 512 423.058594 512 Z M 423.058594 512 " style=" stroke:none;fill-rule:nonzero;fill:rgb(0%,42.745098%,94.117647%);fill-opacity:1;" />
<path d="M 194.171875 441.574219 L 18.105469 441.574219 L 18.105469 476.785156 L 194.171875 476.785156 Z M 194.171875 441.574219 " style=" stroke:none;fill-rule:nonzero;fill:rgb(11.764706%,50.588235%,80.784314%);fill-opacity:1;" />
<path d="M 211.777344 476.785156 L 0.5 476.785156 L 0.5 512 L 211.777344 512 Z M 211.777344 476.785156 " style=" stroke:none;fill-rule:nonzero;fill:rgb(10.196078%,43.529412%,69.019608%);fill-opacity:1;" />
<path d="M 35.714844 195.082031 L 106.140625 195.082031 L 106.140625 441.574219 L 35.714844 441.574219 Z M 35.714844 195.082031 " style=" stroke:none;fill-rule:nonzero;fill:rgb(35.294118%,66.666667%,90.588235%);fill-opacity:1;" />
<path d="M 176.566406 195.082031 L 106.140625 195.082031 L 106.140625 441.574219 L 176.566406 441.574219 Z M 176.566406 195.082031 " style=" stroke:none;fill-rule:nonzero;fill:rgb(47.058824%,72.54902%,92.156863%);fill-opacity:1;" />
<path d="M 449.820312 182.226562 L 176.566406 255.472656 L 176.566406 364.808594 L 477.199219 284.257812 Z M 449.820312 182.226562 " style=" stroke:none;fill-rule:nonzero;fill:rgb(11.764706%,50.588235%,80.784314%);fill-opacity:1;" />
</g>
</svg>