<svg xmlns="http://www.w3.org/2000/svg" height="511pt" version="1.1" viewBox="1 1 511.99999 511" width="511pt">
<g id="surface1">
<path d="M 123.585938 0.5 L 194.207031 0.5 L 194.207031 150.570312 L 123.585938 150.570312 Z M 123.585938 0.5 " style=" stroke:none;fill-rule:nonzero;fill:rgb(57.647059%,78.039216%,93.72549%);fill-opacity:1;" />
<path d="M 52.964844 0.5 L 123.585938 0.5 L 123.585938 150.570312 L 52.964844 150.570312 Z M 52.964844 0.5 " style=" stroke:none;fill-rule:nonzero;fill:rgb(47.058824%,72.54902%,92.156863%);fill-opacity:1;" />
<path d="M 317.792969 0.5 L 388.414062 0.5 L 388.414062 159.398438 L 317.792969 159.398438 Z M 317.792969 0.5 " style=" stroke:none;fill-rule:nonzero;fill:rgb(47.058824%,72.54902%,92.156863%);fill-opacity:1;" />
<path d="M 388.414062 0.5 L 459.035156 0.5 L 459.035156 159.398438 L 388.414062 159.398438 Z M 388.414062 0.5 " style=" stroke:none;fill-rule:nonzero;fill:rgb(57.647059%,78.039216%,93.72549%);fill-opacity:1;" />
<path d="M 35.3125 194.707031 L 211.863281 194.707031 L 211.863281 159.398438 L 35.3125 159.398438 Z M 35.3125 194.707031 " style=" stroke:none;fill-rule:nonzero;fill:rgb(11.764706%,50.588235%,80.784314%);fill-opacity:1;" />
<path d="M 300.136719 194.707031 L 476.6875 194.707031 L 476.6875 159.398438 L 300.136719 159.398438 Z M 300.136719 194.707031 " style=" stroke:none;fill-rule:nonzero;fill:rgb(11.764706%,50.588235%,80.784314%);fill-opacity:1;" />
<path d="M 282.484375 124.085938 L 282.484375 159.398438 L 494.34375 159.398438 L 494.34375 124.085938 Z M 282.484375 124.085938 " style=" stroke:none;fill-rule:nonzero;fill:rgb(10.196078%,43.529412%,69.019608%);fill-opacity:1;" />
<path d="M 17.65625 124.085938 L 17.65625 159.398438 L 229.515625 159.398438 L 229.515625 124.085938 Z M 17.65625 124.085938 " style=" stroke:none;fill-rule:nonzero;fill:rgb(10.196078%,43.529412%,69.019608%);fill-opacity:1;" />
<path d="M 317.792969 194.707031 L 317.792969 441.878906 C 317.792969 480.882812 349.410156 512.5 388.414062 512.5 L 388.414062 194.707031 Z M 317.792969 194.707031 " style=" stroke:none;fill-rule:nonzero;fill:rgb(35.294118%,66.666667%,90.588235%);fill-opacity:1;" />
<path d="M 388.414062 194.707031 L 388.414062 512.5 C 427.417969 512.5 459.035156 480.882812 459.035156 441.878906 L 459.035156 194.707031 Z M 388.414062 194.707031 " style=" stroke:none;fill-rule:nonzero;fill:rgb(47.058824%,72.54902%,92.156863%);fill-opacity:1;" />
<path d="M 52.964844 194.707031 L 52.964844 441.878906 C 52.964844 480.882812 84.582031 512.5 123.585938 512.5 L 123.585938 194.707031 Z M 52.964844 194.707031 " style=" stroke:none;fill-rule:nonzero;fill:rgb(35.294118%,66.666667%,90.588235%);fill-opacity:1;" />
<path d="M 123.585938 512.5 C 162.589844 512.5 194.207031 480.882812 194.207031 441.878906 L 194.207031 194.707031 L 123.585938 194.707031 Z M 123.585938 512.5 " style=" stroke:none;fill-rule:nonzero;fill:rgb(47.058824%,72.54902%,92.156863%);fill-opacity:1;" />
<path d="M 0 0.5 L 512 0.5 L 512 18.15625 L 0 18.15625 Z M 0 0.5 " style=" stroke:none;fill-rule:nonzero;fill:rgb(35.294118%,66.666667%,90.588235%);fill-opacity:1;" />
</g>
</svg>