<svg xmlns="http://www.w3.org/2000/svg" height="511pt" version="1.1" viewBox="1 1 511.99998 511" width="511pt">
<g id="surface1">
<path d="M 459.035156 53.464844 L 317.792969 53.464844 L 317.792969 88.777344 L 459.035156 88.777344 Z M 459.035156 53.464844 " style=" stroke:none;fill-rule:nonzero;fill:rgb(10.196078%,43.529412%,69.019608%);fill-opacity:1;" />
<path d="M 282.484375 335.949219 L 264.828125 335.949219 L 264.828125 388.914062 L 512 388.914062 L 512 335.949219 Z M 282.484375 335.949219 " style=" stroke:none;fill-rule:nonzero;fill:rgb(10.196078%,43.529412%,69.019608%);fill-opacity:1;" />
<path d="M 211.863281 115.257812 L 176.550781 115.257812 L 176.550781 291.808594 L 211.863281 291.808594 Z M 211.863281 115.257812 " style=" stroke:none;fill-rule:nonzero;fill:rgb(11.764706%,50.588235%,80.784314%);fill-opacity:1;" />
<path d="M 176.550781 97.605469 L 141.242188 97.605469 L 141.242188 309.464844 L 176.550781 309.464844 Z M 176.550781 97.605469 " style=" stroke:none;fill-rule:nonzero;fill:rgb(10.196078%,43.529412%,69.019608%);fill-opacity:1;" />
<path d="M 0 203.535156 L 141.242188 203.535156 L 141.242188 274.15625 L 0 274.15625 Z M 0 203.535156 " style=" stroke:none;fill-rule:nonzero;fill:rgb(35.294118%,66.666667%,90.588235%);fill-opacity:1;" />
<path d="M 0 132.914062 L 141.242188 132.914062 L 141.242188 203.535156 L 0 203.535156 Z M 0 132.914062 " style=" stroke:none;fill-rule:nonzero;fill:rgb(47.058824%,72.54902%,92.156863%);fill-opacity:1;" />
<path d="M 388.414062 88.777344 L 282.484375 88.777344 L 282.484375 132.914062 L 211.863281 132.914062 L 211.863281 203.535156 L 388.414062 203.535156 Z M 388.414062 88.777344 " style=" stroke:none;fill-rule:nonzero;fill:rgb(47.058824%,72.54902%,92.156863%);fill-opacity:1;" />
<path d="M 494.34375 88.777344 L 388.414062 88.777344 L 388.414062 335.949219 L 494.34375 335.949219 Z M 494.34375 88.777344 " style=" stroke:none;fill-rule:nonzero;fill:rgb(58.823529%,78.431373%,93.72549%);fill-opacity:1;" />
<path d="M 211.863281 203.535156 L 211.863281 274.15625 L 282.484375 274.15625 L 282.484375 335.949219 L 388.414062 335.949219 L 388.414062 203.535156 Z M 211.863281 203.535156 " style=" stroke:none;fill-rule:nonzero;fill:rgb(35.294118%,66.666667%,90.588235%);fill-opacity:1;" />
<path d="M 494.34375 406.566406 L 494.34375 388.914062 L 388.414062 388.914062 L 388.414062 512.5 C 446.917969 512.5 494.34375 465.074219 494.34375 406.566406 Z M 494.34375 406.566406 " style=" stroke:none;fill-rule:nonzero;fill:rgb(58.823529%,78.431373%,93.72549%);fill-opacity:1;" />
<path d="M 282.484375 406.566406 C 282.484375 465.074219 329.910156 512.5 388.414062 512.5 L 388.414062 388.914062 L 282.484375 388.914062 Z M 282.484375 406.566406 " style=" stroke:none;fill-rule:nonzero;fill:rgb(35.294118%,66.666667%,90.588235%);fill-opacity:1;" />
<path d="M 335.449219 0.5 L 388.414062 0.5 L 388.414062 53.464844 L 335.449219 53.464844 Z M 335.449219 0.5 " style=" stroke:none;fill-rule:nonzero;fill:rgb(47.058824%,72.54902%,92.156863%);fill-opacity:1;" />
<path d="M 388.414062 0.5 L 441.378906 0.5 L 441.378906 53.464844 L 388.414062 53.464844 Z M 388.414062 0.5 " style=" stroke:none;fill-rule:nonzero;fill:rgb(58.823529%,78.431373%,93.72549%);fill-opacity:1;" />
</g>
</svg>