<svg xmlns="http://www.w3.org/2000/svg" height="512pt" version="1.1" viewBox="-62 0 512 512.00068" width="512pt">
<g id="surface1">
<path d="M 264.828125 459.191406 L 264.828125 375.578125 C 219.535156 393.179688 169.292969 393.179688 124.003906 375.578125 L 124.003906 459.191406 Z M 264.828125 459.191406 " style=" stroke:none;fill-rule:nonzero;fill:rgb(10.196078%,43.529412%,69.019608%);fill-opacity:1;" />
<path d="M 150.40625 459.191406 L 238.421875 459.191406 L 238.421875 512 L 150.40625 512 Z M 150.40625 459.191406 " style=" stroke:none;fill-rule:nonzero;fill:rgb(47.058824%,72.54902%,92.156863%);fill-opacity:1;" />
<path d="M 264.828125 375.578125 C 364.878906 336.6875 414.464844 224.054688 375.578125 124.003906 C 336.691406 23.953125 224.058594 -25.632812 124.003906 13.253906 C 23.953125 52.140625 -25.632812 164.773438 13.253906 264.828125 C 42.296875 339.554688 114.246094 388.777344 194.414062 388.777344 C 218.503906 388.792969 242.382812 384.316406 264.828125 375.578125 Z M 27.1875 195.144531 C 27.1875 102.789062 102.058594 27.917969 194.414062 27.917969 C 286.773438 27.917969 361.644531 102.789062 361.644531 195.144531 C 361.644531 287.503906 286.773438 362.375 194.414062 362.375 C 102.058594 362.375 27.1875 287.503906 27.1875 195.144531 Z M 27.1875 195.144531 " style=" stroke:none;fill-rule:nonzero;fill:rgb(100%,68.627451%,27.45098%);fill-opacity:1;" />
<path d="M 212.019531 195.144531 C 212.019531 204.867188 204.136719 212.75 194.414062 212.75 C 184.691406 212.75 176.8125 204.867188 176.8125 195.144531 C 176.8125 185.425781 184.691406 177.542969 194.414062 177.542969 C 204.136719 177.542969 212.019531 185.425781 212.019531 195.144531 Z M 212.019531 195.144531 " style=" stroke:none;fill-rule:nonzero;fill:rgb(93.333333%,78.823529%,66.27451%);fill-opacity:1;" />
<path d="M 141.605469 265.558594 L 247.222656 265.558594 L 247.222656 318.367188 L 141.605469 318.367188 Z M 141.605469 265.558594 " style=" stroke:none;fill-rule:nonzero;fill:rgb(100%,68.627451%,27.45098%);fill-opacity:1;" />
<path d="M 194.414062 27.917969 L 194.414062 54.320312 C 219.125 54.328125 243.394531 60.886719 264.75 73.324219 L 264.828125 73.191406 L 264.75 73.324219 C 286.101562 85.710938 303.851562 103.457031 316.238281 124.8125 L 316.367188 124.734375 L 316.238281 124.8125 C 341.539062 168.304688 341.582031 222.023438 316.351562 265.558594 C 328.753906 244.167969 335.273438 219.871094 335.238281 195.144531 C 335.234375 170.433594 328.675781 146.164062 316.238281 124.8125 L 285.878906 142.335938 L 316.238281 124.8125 C 303.851562 103.457031 286.101562 85.710938 264.75 73.324219 L 247.222656 103.679688 L 264.75 73.324219 C 243.394531 60.886719 219.128906 54.328125 194.414062 54.320312 L 194.414062 177.542969 C 204.136719 177.542969 212.019531 185.425781 212.019531 195.144531 C 212.019531 204.867188 204.136719 212.75 194.414062 212.75 L 194.414062 265.558594 L 247.222656 265.558594 L 247.222656 318.367188 L 194.414062 318.367188 L 194.414062 362.375 C 286.773438 362.375 361.644531 287.503906 361.644531 195.148438 C 361.644531 102.789062 286.773438 27.917969 194.414062 27.917969 Z M 285.878906 247.953125 L 316.367188 265.558594 Z M 285.878906 247.953125 " style=" stroke:none;fill-rule:nonzero;fill:rgb(94.509804%,83.137255%,72.941176%);fill-opacity:1;" />
<path d="M 141.605469 318.367188 L 141.605469 265.558594 L 194.414062 265.558594 L 194.414062 212.75 C 184.695312 212.75 176.8125 204.867188 176.8125 195.144531 C 176.8125 185.421875 184.695312 177.542969 194.414062 177.542969 L 194.414062 54.320312 C 169.703125 54.328125 145.433594 60.886719 124.082031 73.324219 L 141.605469 103.679688 L 124.082031 73.324219 C 102.726562 85.710938 84.980469 103.457031 72.59375 124.8125 L 102.949219 142.335938 L 72.59375 124.8125 C 60.15625 146.164062 53.597656 170.433594 53.589844 195.144531 C 53.558594 219.871094 60.078125 244.167969 72.480469 265.558594 C 47.253906 222.027344 47.296875 168.320312 72.59375 124.832031 L 72.460938 124.734375 L 72.59375 124.8125 C 84.980469 103.460938 102.726562 85.710938 124.082031 73.324219 L 124.003906 73.191406 L 124.082031 73.324219 C 145.433594 60.886719 169.703125 54.328125 194.414062 54.324219 L 194.414062 27.917969 C 102.058594 27.917969 27.1875 102.789062 27.1875 195.144531 C 27.1875 287.503906 102.058594 362.375 194.414062 362.375 L 194.414062 318.367188 Z M 72.460938 265.558594 L 102.949219 247.953125 Z M 179.171875 203.949219 L 133.402344 230.351562 Z M 179.171875 203.949219 " style=" stroke:none;fill-rule:nonzero;fill:rgb(93.333333%,78.823529%,66.27451%);fill-opacity:1;" />
<path d="M 316.34375 274.359375 C 311.480469 274.355469 307.542969 270.410156 307.550781 265.550781 C 307.550781 264.007812 307.957031 262.492188 308.730469 261.15625 C 345.207031 198.023438 323.597656 117.273438 260.464844 80.796875 C 197.328125 44.320312 116.578125 65.929688 80.101562 129.0625 C 56.492188 169.929688 56.492188 220.289062 80.101562 261.15625 C 82.40625 265.4375 80.804688 270.777344 76.523438 273.078125 C 72.425781 275.285156 67.316406 273.917969 64.867188 269.957031 C 23.519531 198.410156 48.003906 106.890625 119.550781 65.542969 C 191.097656 24.199219 282.617188 48.679688 323.964844 120.230469 C 350.734375 166.550781 350.734375 223.636719 323.964844 269.957031 C 322.390625 272.683594 319.488281 274.359375 316.34375 274.359375 Z M 316.34375 274.359375 " style=" stroke:none;fill-rule:nonzero;fill:rgb(94.509804%,94.901961%,94.901961%);fill-opacity:1;" />
<path d="M 194.414062 221.550781 C 179.832031 221.550781 168.011719 209.730469 168.011719 195.144531 C 168.011719 180.5625 179.832031 168.742188 194.414062 168.742188 C 208.996094 168.742188 220.820312 180.5625 220.820312 195.144531 C 220.628906 209.648438 208.917969 221.359375 194.414062 221.550781 Z M 194.414062 186.34375 C 189.554688 186.34375 185.613281 190.285156 185.613281 195.144531 C 185.613281 200.003906 189.554688 203.945312 194.414062 203.945312 C 199.277344 203.945312 203.214844 200.003906 203.214844 195.144531 C 203.097656 190.335938 199.226562 186.464844 194.414062 186.34375 Z M 194.414062 186.34375 " style=" stroke:none;fill-rule:nonzero;fill:rgb(67.058824%,13.72549%,0%);fill-opacity:1;" />
<path d="M 194.414062 98.328125 C 189.554688 98.328125 185.613281 94.390625 185.613281 89.527344 L 185.613281 54.320312 C 185.613281 49.460938 189.554688 45.519531 194.414062 45.519531 C 199.277344 45.519531 203.214844 49.460938 203.214844 54.320312 L 203.214844 89.527344 C 203.21875 94.390625 199.277344 98.328125 194.414062 98.328125 Z M 194.414062 98.328125 " style=" stroke:none;fill-rule:nonzero;fill:rgb(94.509804%,94.901961%,94.901961%);fill-opacity:1;" />
<path d="M 141.605469 112.472656 C 138.457031 112.476562 135.550781 110.800781 133.976562 108.074219 L 116.371094 77.59375 C 113.914062 73.398438 115.320312 68.007812 119.515625 65.550781 C 123.707031 63.089844 129.101562 64.5 131.558594 68.691406 C 131.578125 68.726562 131.597656 68.757812 131.617188 68.792969 L 149.21875 99.273438 C 151.648438 103.480469 150.207031 108.863281 145.996094 111.296875 C 144.664062 112.066406 143.148438 112.472656 141.605469 112.472656 Z M 141.605469 112.472656 " style=" stroke:none;fill-rule:nonzero;fill:rgb(94.509804%,94.901961%,94.901961%);fill-opacity:1;" />
<path d="M 102.941406 151.140625 C 101.398438 151.140625 99.878906 150.730469 98.539062 149.960938 L 68.050781 132.355469 C 63.828125 129.953125 62.347656 124.582031 64.75 120.355469 C 67.15625 116.128906 72.527344 114.652344 76.753906 117.054688 C 76.785156 117.074219 76.820312 117.09375 76.855469 117.113281 L 107.34375 134.714844 C 111.550781 137.144531 112.996094 142.527344 110.5625 146.738281 C 108.992188 149.460938 106.085938 151.136719 102.941406 151.140625 Z M 102.941406 151.140625 " style=" stroke:none;fill-rule:nonzero;fill:rgb(94.509804%,94.901961%,94.901961%);fill-opacity:1;" />
<path d="M 88.796875 203.949219 L 53.589844 203.949219 C 48.730469 203.949219 44.789062 200.007812 44.789062 195.144531 C 44.789062 190.285156 48.730469 186.34375 53.589844 186.34375 L 88.796875 186.34375 C 93.660156 186.34375 97.597656 190.285156 97.597656 195.144531 C 97.597656 200.007812 93.660156 203.949219 88.796875 203.949219 Z M 88.796875 203.949219 " style=" stroke:none;fill-rule:nonzero;fill:rgb(94.509804%,94.901961%,94.901961%);fill-opacity:1;" />
<path d="M 72.472656 274.359375 C 67.609375 274.359375 63.667969 270.417969 63.667969 265.558594 C 63.667969 262.414062 65.347656 259.507812 68.070312 257.9375 L 98.558594 240.332031 C 102.753906 237.875 108.144531 239.28125 110.601562 243.476562 C 113.0625 247.667969 111.65625 253.058594 107.460938 255.519531 C 107.425781 255.539062 107.394531 255.558594 107.359375 255.578125 L 76.871094 273.179688 C 75.53125 273.953125 74.015625 274.359375 72.472656 274.359375 Z M 72.472656 274.359375 " style=" stroke:none;fill-rule:nonzero;fill:rgb(94.509804%,94.901961%,94.901961%);fill-opacity:1;" />
<path d="M 316.359375 274.359375 C 314.816406 274.359375 313.296875 273.953125 311.960938 273.179688 L 281.472656 255.578125 C 277.277344 253.117188 275.871094 247.726562 278.328125 243.535156 C 280.765625 239.378906 286.085938 237.953125 290.273438 240.332031 L 320.761719 257.9375 C 324.972656 260.367188 326.414062 265.75 323.984375 269.960938 C 322.410156 272.683594 319.503906 274.359375 316.359375 274.359375 Z M 316.359375 274.359375 " style=" stroke:none;fill-rule:nonzero;fill:rgb(94.509804%,94.901961%,94.901961%);fill-opacity:1;" />
<path d="M 335.238281 203.949219 L 300.03125 203.949219 C 295.171875 203.949219 291.230469 200.007812 291.230469 195.144531 C 291.230469 190.285156 295.171875 186.34375 300.03125 186.34375 L 335.238281 186.34375 C 340.101562 186.34375 344.039062 190.285156 344.039062 195.144531 C 344.039062 200.007812 340.101562 203.949219 335.238281 203.949219 Z M 335.238281 203.949219 " style=" stroke:none;fill-rule:nonzero;fill:rgb(94.509804%,94.901961%,94.901961%);fill-opacity:1;" />
<path d="M 285.890625 151.140625 C 281.027344 151.140625 277.089844 147.199219 277.089844 142.335938 C 277.089844 139.191406 278.765625 136.289062 281.488281 134.714844 L 311.976562 117.113281 C 316.171875 114.652344 321.5625 116.058594 324.019531 120.253906 C 326.480469 124.445312 325.074219 129.839844 320.878906 132.296875 C 320.847656 132.316406 320.8125 132.335938 320.777344 132.355469 L 290.289062 149.957031 C 288.953125 150.730469 287.433594 151.140625 285.890625 151.140625 Z M 285.890625 151.140625 " style=" stroke:none;fill-rule:nonzero;fill:rgb(94.509804%,94.901961%,94.901961%);fill-opacity:1;" />
<path d="M 247.222656 112.472656 C 242.363281 112.46875 238.425781 108.523438 238.433594 103.664062 C 238.433594 102.121094 238.839844 100.605469 239.613281 99.269531 L 257.214844 68.792969 C 259.617188 64.566406 264.988281 63.085938 269.214844 65.488281 C 273.441406 67.890625 274.921875 73.265625 272.519531 77.492188 C 272.5 77.523438 272.476562 77.558594 272.457031 77.59375 L 254.855469 108.074219 C 253.28125 110.800781 250.371094 112.476562 247.222656 112.472656 Z M 247.222656 112.472656 " style=" stroke:none;fill-rule:nonzero;fill:rgb(94.509804%,94.901961%,94.901961%);fill-opacity:1;" />
<path d="M 133.445312 239.152344 C 128.585938 239.152344 124.644531 235.210938 124.644531 230.351562 C 124.644531 227.207031 126.324219 224.300781 129.046875 222.730469 L 174.8125 196.324219 C 179.039062 193.921875 184.414062 195.402344 186.816406 199.625 C 189.195312 203.8125 187.769531 209.132812 183.617188 211.570312 L 137.847656 237.972656 C 136.511719 238.746094 134.992188 239.152344 133.445312 239.152344 Z M 133.445312 239.152344 " style=" stroke:none;fill-rule:nonzero;fill:rgb(67.058824%,13.72549%,0%);fill-opacity:1;" />
</g>
</svg>