<svg xmlns="http://www.w3.org/2000/svg" height="511pt" version="1.1" viewBox="1 1 511 511.99998" width="511pt">
<g id="surface1">
<path d="M 62.292969 187.496094 L 0.5 247.171875 L 52.757812 247.171875 L 72.972656 227.488281 C 66.261719 215.203125 62.601562 201.492188 62.292969 187.496094 Z M 62.292969 187.496094 " style=" stroke:none;fill-rule:nonzero;fill:rgb(10.196078%,43.529412%,69.019608%);fill-opacity:1;" />
<path d="M 353.601562 93.75 L 256.5 0 L 187.554688 66.648438 C 193.558594 76.710938 199.828125 87.480469 205.742188 98.429688 L 256.5 49.082031 L 460.242188 247.171875 L 512.5 247.171875 L 424.222656 161.898438 Z M 353.601562 93.75 " style=" stroke:none;fill-rule:nonzero;fill:rgb(10.196078%,43.529412%,69.019608%);fill-opacity:1;" />
<path d="M 150.570312 273.65625 C 199.320312 273.65625 238.84375 234.132812 238.84375 185.378906 C 238.84375 165.074219 223.574219 131.175781 205.742188 98.425781 C 199.828125 87.480469 193.558594 76.710938 187.554688 66.648438 C 168.046875 34.160156 150.570312 8.828125 150.570312 8.828125 C 150.570312 8.828125 62.292969 136.652344 62.292969 185.378906 L 62.292969 187.496094 C 62.601562 201.492188 66.261719 215.203125 72.972656 227.488281 C 88.417969 255.941406 118.195312 273.65625 150.570312 273.65625 Z M 203.535156 185.378906 C 203.503906 214.621094 179.808594 238.316406 150.570312 238.34375 C 179.808594 238.316406 203.503906 214.617188 203.535156 185.378906 Z M 203.535156 185.378906 " style=" stroke:none;fill-rule:nonzero;fill:rgb(0%,42.745098%,94.117647%);fill-opacity:1;" />
<path d="M 256.5 335.449219 L 256.5 49.082031 L 205.742188 98.425781 C 223.574219 131.175781 238.84375 165.074219 238.84375 185.378906 C 238.851562 234.132812 199.335938 273.664062 150.585938 273.671875 C 118.203125 273.675781 88.414062 255.953125 72.972656 227.488281 L 52.757812 247.171875 L 53.464844 247.171875 L 53.464844 512 L 177.050781 512 L 177.050781 335.449219 Z M 256.5 335.449219 " style=" stroke:none;fill-rule:nonzero;fill:rgb(35.294118%,66.666667%,90.588235%);fill-opacity:1;" />
<path d="M 256.5 49.082031 L 256.5 335.449219 L 335.949219 335.449219 L 335.949219 512 L 459.535156 512 L 459.535156 247.171875 L 460.242188 247.171875 Z M 256.5 49.082031 " style=" stroke:none;fill-rule:nonzero;fill:rgb(47.058824%,72.54902%,92.156863%);fill-opacity:1;" />
<path d="M 177.050781 335.449219 L 256.5 335.449219 L 256.5 512 L 177.050781 512 Z M 177.050781 335.449219 " style=" stroke:none;fill-rule:nonzero;fill:rgb(10.196078%,43.529412%,69.019608%);fill-opacity:1;" />
<path d="M 256.5 335.449219 L 335.949219 335.449219 L 335.949219 512 L 256.5 512 Z M 256.5 335.449219 " style=" stroke:none;fill-rule:nonzero;fill:rgb(11.764706%,50.588235%,80.784314%);fill-opacity:1;" />
<path d="M 150.570312 247.171875 L 150.570312 229.515625 C 174.933594 229.488281 194.675781 209.742188 194.707031 185.378906 L 212.363281 185.378906 C 212.324219 219.492188 184.679688 247.132812 150.570312 247.171875 Z M 150.570312 247.171875 " style=" stroke:none;fill-rule:nonzero;fill:rgb(76.078431%,87.45098%,96.470588%);fill-opacity:1;" />
</g>
</svg>