<svg xmlns="http://www.w3.org/2000/svg" height="511.99923pt" version="1.1" viewBox="1 1 511.99923 511.99923" width="511.99923pt">
<g id="surface1">
<path d="M 300.136719 467.863281 C 300.136719 443.488281 256 379.585938 256 379.585938 C 256 379.585938 211.863281 443.488281 211.863281 467.863281 C 211.863281 492.238281 231.621094 512 256 512 C 280.375 512 300.136719 492.238281 300.136719 467.863281 Z M 300.136719 467.863281 " style=" stroke:none;fill-rule:nonzero;fill:rgb(0%,42.745098%,94.117647%);fill-opacity:1;" />
<path d="M 141.242188 185.378906 L 105.929688 185.378906 L 105.929688 361.929688 L 141.242188 361.929688 Z M 141.242188 185.378906 " style=" stroke:none;fill-rule:nonzero;fill:rgb(11.764706%,50.588235%,80.784314%);fill-opacity:1;" />
<path d="M 105.929688 167.722656 L 70.621094 167.722656 L 70.621094 379.585938 L 105.929688 379.585938 Z M 105.929688 167.722656 " style=" stroke:none;fill-rule:nonzero;fill:rgb(10.196078%,43.529412%,69.019608%);fill-opacity:1;" />
<path d="M 370.757812 185.378906 L 370.757812 361.929688 L 406.066406 361.929688 L 406.066406 185.378906 Z M 370.757812 185.378906 " style=" stroke:none;fill-rule:nonzero;fill:rgb(11.764706%,50.588235%,80.784314%);fill-opacity:1;" />
<path d="M 441.378906 167.722656 L 406.066406 167.722656 L 406.066406 379.585938 L 441.378906 379.585938 Z M 441.378906 167.722656 " style=" stroke:none;fill-rule:nonzero;fill:rgb(10.196078%,43.529412%,69.019608%);fill-opacity:1;" />
<path d="M 344.277344 141.242188 L 344.277344 105.929688 L 167.722656 105.929688 L 167.722656 141.242188 Z M 344.277344 141.242188 " style=" stroke:none;fill-rule:nonzero;fill:rgb(11.764706%,50.588235%,80.784314%);fill-opacity:1;" />
<path d="M 361.929688 105.929688 L 361.929688 70.621094 L 150.070312 70.621094 L 150.070312 105.929688 Z M 361.929688 105.929688 " style=" stroke:none;fill-rule:nonzero;fill:rgb(10.196078%,43.529412%,69.019608%);fill-opacity:1;" />
<path d="M 256 282.484375 L 256 264.828125 L 141.242188 264.828125 L 141.242188 344.277344 L 238.40625 344.277344 L 238.34375 291.308594 L 282.484375 344.277344 L 370.757812 344.277344 L 370.757812 264.828125 L 256 264.828125 Z M 256 282.484375 " style=" stroke:none;fill-rule:nonzero;fill:rgb(35.294118%,66.666667%,90.588235%);fill-opacity:1;" />
<path d="M 344.277344 203.035156 C 334.523438 203.035156 326.621094 195.128906 326.621094 185.378906 L 326.621094 141.242188 L 256 141.242188 L 256 264.828125 L 370.757812 264.828125 L 370.757812 203.035156 Z M 344.277344 203.035156 " style=" stroke:none;fill-rule:nonzero;fill:rgb(58.823529%,78.431373%,93.72549%);fill-opacity:1;" />
<path d="M 256 141.242188 L 185.378906 141.242188 L 185.378906 185.378906 C 185.378906 195.128906 177.476562 203.035156 167.722656 203.035156 L 141.242188 203.035156 L 141.242188 264.828125 L 256 264.828125 Z M 256 141.242188 " style=" stroke:none;fill-rule:nonzero;fill:rgb(47.058824%,72.54902%,92.156863%);fill-opacity:1;" />
<path d="M 185.378906 0 L 256 0 L 256 70.621094 L 185.378906 70.621094 Z M 185.378906 0 " style=" stroke:none;fill-rule:nonzero;fill:rgb(47.058824%,72.54902%,92.156863%);fill-opacity:1;" />
<path d="M 256 0 L 326.621094 0 L 326.621094 70.621094 L 256 70.621094 Z M 256 0 " style=" stroke:none;fill-rule:nonzero;fill:rgb(58.823529%,78.431373%,93.72549%);fill-opacity:1;" />
<path d="M 0 203.035156 L 70.621094 203.035156 L 70.621094 264.828125 L 0 264.828125 Z M 0 203.035156 " style=" stroke:none;fill-rule:nonzero;fill:rgb(47.058824%,72.54902%,92.156863%);fill-opacity:1;" />
<path d="M 0 264.828125 L 70.621094 264.828125 L 70.621094 344.277344 L 0 344.277344 Z M 0 264.828125 " style=" stroke:none;fill-rule:nonzero;fill:rgb(35.294118%,66.666667%,90.588235%);fill-opacity:1;" />
<path d="M 441.378906 203.035156 L 512 203.035156 L 512 264.828125 L 441.378906 264.828125 Z M 441.378906 203.035156 " style=" stroke:none;fill-rule:nonzero;fill:rgb(58.823529%,78.431373%,93.72549%);fill-opacity:1;" />
<path d="M 441.378906 264.828125 L 512 264.828125 L 512 344.277344 L 441.378906 344.277344 Z M 441.378906 264.828125 " style=" stroke:none;fill-rule:nonzero;fill:rgb(35.294118%,66.666667%,90.588235%);fill-opacity:1;" />
</g>
</svg>