<svg xmlns="http://www.w3.org/2000/svg" height="512pt" version="1.1" viewBox="0 -3 512.0006 512" width="512pt">
<g id="surface1">
<path d="M 76.09375 316.976562 L 41.824219 316.976562 L 41.824219 488.316406 L 76.09375 488.316406 Z M 76.09375 316.976562 " style=" stroke:none;fill-rule:nonzero;fill:rgb(11.764706%,50.588235%,80.784314%);fill-opacity:1;" />
<path d="M 41.824219 299.84375 L 7.558594 299.84375 L 7.558594 505.449219 L 41.824219 505.449219 Z M 41.824219 299.84375 " style=" stroke:none;fill-rule:nonzero;fill:rgb(10.196078%,43.529412%,69.019608%);fill-opacity:1;" />
<path d="M 435.90625 316.976562 L 435.90625 488.316406 L 470.171875 488.316406 L 470.171875 316.976562 Z M 435.90625 316.976562 " style=" stroke:none;fill-rule:nonzero;fill:rgb(11.764706%,50.588235%,80.784314%);fill-opacity:1;" />
<path d="M 470.171875 316.976562 L 470.171875 505.449219 L 504.441406 505.449219 L 504.441406 299.84375 L 470.171875 299.84375 Z M 470.171875 316.976562 " style=" stroke:none;fill-rule:nonzero;fill:rgb(10.196078%,43.529412%,69.019608%);fill-opacity:1;" />
<path d="M 221.84375 334.109375 L 76.09375 334.109375 L 76.09375 402.648438 L 307.402344 402.648438 Z M 221.84375 334.109375 " style=" stroke:none;fill-rule:nonzero;fill:rgb(47.058824%,72.54902%,92.156863%);fill-opacity:1;" />
<path d="M 291.066406 334.109375 L 307.402344 402.648438 L 435.90625 402.648438 L 435.90625 334.109375 Z M 291.066406 334.109375 " style=" stroke:none;fill-rule:nonzero;fill:rgb(47.058824%,72.54902%,92.156863%);fill-opacity:1;" />
<path d="M 76.09375 402.648438 L 76.09375 471.183594 L 435.90625 471.183594 L 435.90625 402.648438 Z M 76.09375 402.648438 " style=" stroke:none;fill-rule:nonzero;fill:rgb(35.294118%,66.666667%,90.588235%);fill-opacity:1;" />
<path d="M 256 274.140625 C 251.269531 274.140625 247.433594 270.304688 247.433594 265.574219 L 247.433594 214.171875 C 247.433594 209.441406 251.269531 205.605469 256 205.605469 C 260.730469 205.605469 264.566406 209.441406 264.566406 214.171875 L 264.566406 265.574219 C 264.566406 270.304688 260.730469 274.140625 256 274.140625 Z M 256 274.140625 " style=" stroke:none;fill-rule:nonzero;fill:rgb(35.294118%,66.666667%,90.588235%);fill-opacity:1;" />
<path d="M 256 171.339844 C 251.269531 171.339844 247.433594 167.503906 247.433594 162.773438 L 247.433594 111.371094 C 247.433594 106.640625 251.269531 102.804688 256 102.804688 C 260.730469 102.804688 264.566406 106.640625 264.566406 111.371094 L 264.566406 162.773438 C 264.566406 167.503906 260.730469 171.339844 256 171.339844 Z M 256 171.339844 " style=" stroke:none;fill-rule:nonzero;fill:rgb(35.294118%,66.666667%,90.588235%);fill-opacity:1;" />
<path d="M 256 68.535156 C 251.269531 68.535156 247.433594 64.699219 247.433594 59.96875 L 247.433594 8.566406 C 247.433594 3.835938 251.269531 0 256 0 C 260.730469 0 264.566406 3.835938 264.566406 8.566406 L 264.566406 59.96875 C 264.566406 64.699219 260.730469 68.535156 256 68.535156 Z M 256 68.535156 " style=" stroke:none;fill-rule:nonzero;fill:rgb(35.294118%,66.666667%,90.588235%);fill-opacity:1;" />
<path d="M 190.402344 294.214844 C 188.128906 294.21875 185.949219 293.316406 184.347656 291.703125 L 148.003906 255.363281 C 144.71875 251.960938 144.8125 246.535156 148.214844 243.25 C 151.535156 240.042969 156.800781 240.042969 160.117188 243.25 L 196.460938 279.589844 C 199.804688 282.9375 199.804688 288.359375 196.457031 291.707031 C 194.851562 293.3125 192.675781 294.214844 190.402344 294.214844 Z M 190.402344 294.214844 " style=" stroke:none;fill-rule:nonzero;fill:rgb(35.294118%,66.666667%,90.588235%);fill-opacity:1;" />
<path d="M 117.703125 221.523438 C 115.429688 221.523438 113.253906 220.621094 111.648438 219.015625 L 75.304688 182.664062 C 72.019531 179.261719 72.113281 173.835938 75.515625 170.550781 C 78.835938 167.34375 84.101562 167.34375 87.421875 170.550781 L 123.761719 206.902344 C 127.105469 210.246094 127.105469 215.671875 123.757812 219.015625 C 122.152344 220.621094 119.976562 221.523438 117.703125 221.523438 Z M 117.703125 221.523438 " style=" stroke:none;fill-rule:nonzero;fill:rgb(35.294118%,66.666667%,90.588235%);fill-opacity:1;" />
<path d="M 45.019531 148.832031 C 42.75 148.832031 40.570312 147.929688 38.964844 146.324219 L 2.617188 109.972656 C -0.789062 106.6875 -0.882812 101.261719 2.40625 97.859375 C 5.691406 94.457031 11.117188 94.363281 14.519531 97.648438 C 14.589844 97.71875 14.660156 97.789062 14.730469 97.859375 L 51.078125 134.207031 C 54.421875 137.554688 54.421875 142.980469 51.074219 146.324219 C 49.472656 147.929688 47.292969 148.832031 45.019531 148.832031 Z M 45.019531 148.832031 " style=" stroke:none;fill-rule:nonzero;fill:rgb(35.294118%,66.666667%,90.588235%);fill-opacity:1;" />
<path d="M 321.597656 294.214844 C 316.867188 294.214844 313.03125 290.378906 313.03125 285.644531 C 313.035156 283.375 313.933594 281.195312 315.542969 279.589844 L 351.882812 243.25 C 355.285156 239.960938 360.710938 240.054688 363.996094 243.460938 C 367.203125 246.777344 367.203125 252.042969 363.996094 255.363281 L 327.65625 291.703125 C 326.050781 293.316406 323.871094 294.222656 321.597656 294.214844 Z M 321.597656 294.214844 " style=" stroke:none;fill-rule:nonzero;fill:rgb(35.294118%,66.666667%,90.588235%);fill-opacity:1;" />
<path d="M 394.296875 221.523438 C 389.566406 221.523438 385.730469 217.6875 385.730469 212.953125 C 385.730469 210.683594 386.632812 208.507812 388.238281 206.898438 L 424.582031 170.550781 C 427.984375 167.261719 433.40625 167.355469 436.695312 170.761719 C 439.902344 174.082031 439.902344 179.34375 436.695312 182.664062 L 400.355469 219.015625 C 398.746094 220.621094 396.570312 221.523438 394.296875 221.523438 Z M 394.296875 221.523438 " style=" stroke:none;fill-rule:nonzero;fill:rgb(35.294118%,66.666667%,90.588235%);fill-opacity:1;" />
<path d="M 466.976562 148.832031 C 462.246094 148.832031 458.414062 144.996094 458.414062 140.265625 C 458.414062 137.996094 459.316406 135.816406 460.921875 134.210938 L 497.269531 97.859375 C 500.558594 94.457031 505.980469 94.363281 509.386719 97.648438 C 512.789062 100.9375 512.882812 106.359375 509.59375 109.765625 C 509.527344 109.835938 509.457031 109.90625 509.386719 109.972656 L 473.035156 146.324219 C 471.429688 147.929688 469.25 148.832031 466.976562 148.832031 Z M 466.976562 148.832031 " style=" stroke:none;fill-rule:nonzero;fill:rgb(35.294118%,66.666667%,90.588235%);fill-opacity:1;" />
</g>
</svg>