<svg xmlns="http://www.w3.org/2000/svg" height="512pt" version="1.1" viewBox="-2 0 512 512.00015" width="512pt">
<g id="surface1">
<path d="M 140.023438 328.21875 L 105.019531 328.21875 L 105.019531 512 L 140.023438 512 Z M 140.023438 328.21875 " style=" stroke:none;fill-rule:nonzero;fill:rgb(10.196078%,43.529412%,69.019608%);fill-opacity:1;" />
<path d="M 70.011719 345.71875 L 70.011719 503.25 L 105.019531 503.25 L 105.019531 345.71875 Z M 70.011719 345.71875 " style=" stroke:none;fill-rule:nonzero;fill:rgb(11.764706%,50.588235%,80.784314%);fill-opacity:1;" />
<path d="M 402.570312 328.21875 L 367.566406 328.21875 L 367.566406 512 L 402.570312 512 Z M 402.570312 328.21875 " style=" stroke:none;fill-rule:nonzero;fill:rgb(10.196078%,43.529412%,69.019608%);fill-opacity:1;" />
<path d="M 437.578125 345.71875 L 402.570312 345.71875 L 402.570312 503.25 L 437.578125 503.25 Z M 437.578125 345.71875 " style=" stroke:none;fill-rule:nonzero;fill:rgb(11.764706%,50.588235%,80.784314%);fill-opacity:1;" />
<path d="M 238.261719 204.820312 C 238.058594 204.417969 237.804688 204.042969 237.640625 203.628906 C 237.816406 204.050781 238.042969 204.425781 238.261719 204.820312 Z M 238.261719 204.820312 " style=" stroke:none;fill-rule:nonzero;fill:rgb(10.196078%,43.529412%,69.019608%);fill-opacity:1;" />
<path d="M 259.203125 213.503906 C 258.53125 213.746094 257.84375 213.949219 257.144531 214.105469 C 257.84375 213.945312 258.53125 213.742188 259.203125 213.503906 Z M 259.203125 213.503906 " style=" stroke:none;fill-rule:nonzero;fill:rgb(10.196078%,43.529412%,69.019608%);fill-opacity:1;" />
<path d="M 247.109375 213.097656 C 246.6875 212.925781 246.304688 212.671875 245.902344 212.46875 C 246.304688 212.695312 246.679688 212.925781 247.109375 213.097656 Z M 247.109375 213.097656 " style=" stroke:none;fill-rule:nonzero;fill:rgb(10.196078%,43.529412%,69.019608%);fill-opacity:1;" />
<path d="M 269.949219 203.640625 C 269.785156 204.050781 269.53125 204.425781 269.328125 204.828125 C 269.546875 204.425781 269.773438 204.050781 269.949219 203.640625 Z M 269.949219 203.640625 " style=" stroke:none;fill-rule:nonzero;fill:rgb(10.196078%,43.529412%,69.019608%);fill-opacity:1;" />
<path d="M 270.957031 200.296875 C 270.796875 200.988281 270.597656 201.667969 270.351562 202.335938 C 270.597656 201.667969 270.800781 200.988281 270.957031 200.296875 Z M 270.957031 200.296875 " style=" stroke:none;fill-rule:nonzero;fill:rgb(10.196078%,43.529412%,69.019608%);fill-opacity:1;" />
<path d="M 261.671875 212.46875 C 261.269531 212.671875 260.882812 212.925781 260.464844 213.097656 C 260.910156 212.925781 261.285156 212.695312 261.671875 212.46875 Z M 261.671875 212.46875 " style=" stroke:none;fill-rule:nonzero;fill:rgb(10.196078%,43.529412%,69.019608%);fill-opacity:1;" />
<path d="M 250.453125 214.105469 C 252.65625 214.5625 254.933594 214.5625 257.136719 214.105469 C 254.929688 214.535156 252.660156 214.535156 250.453125 214.105469 Z M 250.453125 214.105469 " style=" stroke:none;fill-rule:nonzero;fill:rgb(10.196078%,43.529412%,69.019608%);fill-opacity:1;" />
<path d="M 270.957031 200.285156 C 271.179688 199.1875 271.292969 198.066406 271.296875 196.945312 C 271.277344 195.109375 270.957031 193.285156 270.351562 191.550781 C 271.285156 194.367188 271.492188 197.371094 270.957031 200.285156 Z M 270.957031 200.285156 " style=" stroke:none;fill-rule:nonzero;fill:rgb(10.196078%,43.529412%,69.019608%);fill-opacity:1;" />
<path d="M 237.238281 191.554688 C 236.632812 193.289062 236.3125 195.109375 236.292969 196.945312 C 236.316406 198.78125 236.636719 200.601562 237.238281 202.335938 C 236.109375 198.828125 236.109375 195.058594 237.238281 191.554688 Z M 237.238281 191.554688 " style=" stroke:none;fill-rule:nonzero;fill:rgb(10.196078%,43.529412%,69.019608%);fill-opacity:1;" />
<path d="M 288.800781 280.085938 C 364.925781 260.75 410.964844 183.367188 391.632812 107.242188 C 372.296875 31.117188 294.914062 -14.921875 218.789062 4.410156 C 142.664062 23.742188 96.625 101.128906 115.957031 177.253906 C 131.972656 240.308594 188.734375 284.460938 253.792969 284.460938 C 265.601562 284.480469 277.363281 283.011719 288.800781 280.085938 Z M 210.039062 249.453125 C 167.703125 231.714844 140.117188 190.335938 140.023438 144.433594 C 139.992188 81.601562 190.902344 30.636719 253.734375 30.605469 C 316.566406 30.570312 367.53125 81.480469 367.566406 144.3125 C 367.582031 179.371094 351.441406 212.476562 323.808594 234.050781 C 291.457031 259.375 247.957031 265.265625 210.039062 249.453125 Z M 210.039062 249.453125 " style=" stroke:none;fill-rule:nonzero;fill:rgb(100%,71.372549%,33.333333%);fill-opacity:1;" />
<path d="M 259.1875 180.386719 C 257.449219 179.785156 255.628906 179.46875 253.792969 179.441406 C 252.671875 179.445312 251.554688 179.5625 250.453125 179.78125 C 253.367188 179.246094 256.371094 179.453125 259.1875 180.386719 Z M 259.1875 180.386719 " style=" stroke:none;fill-rule:nonzero;fill:rgb(10.196078%,43.529412%,69.019608%);fill-opacity:1;" />
<path d="M 250.441406 214.105469 C 249.746094 213.945312 249.058594 213.746094 248.386719 213.5 C 249.058594 213.742188 249.746094 213.945312 250.441406 214.105469 Z M 250.441406 214.105469 " style=" stroke:none;fill-rule:nonzero;fill:rgb(10.196078%,43.529412%,69.019608%);fill-opacity:1;" />
<path d="M 269.335938 189.066406 C 269.53125 189.460938 269.785156 189.835938 269.949219 190.242188 C 269.773438 189.835938 269.546875 189.46875 269.335938 189.066406 Z M 269.335938 189.066406 " style=" stroke:none;fill-rule:nonzero;fill:rgb(10.196078%,43.529412%,69.019608%);fill-opacity:1;" />
<path d="M 260.488281 180.789062 C 260.894531 180.957031 261.269531 181.210938 261.664062 181.410156 C 261.269531 181.191406 260.902344 180.964844 260.488281 180.789062 Z M 260.488281 180.789062 " style=" stroke:none;fill-rule:nonzero;fill:rgb(10.196078%,43.529412%,69.019608%);fill-opacity:1;" />
<path d="M 245.917969 181.410156 C 246.320312 181.207031 246.699219 180.957031 247.101562 180.789062 C 246.6875 180.964844 246.320312 181.191406 245.917969 181.410156 Z M 245.917969 181.410156 " style=" stroke:none;fill-rule:nonzero;fill:rgb(10.196078%,43.529412%,69.019608%);fill-opacity:1;" />
<path d="M 248.414062 180.378906 C 249.078125 180.140625 249.753906 179.941406 250.441406 179.78125 C 249.753906 179.941406 249.078125 180.140625 248.414062 180.378906 Z M 248.414062 180.378906 " style=" stroke:none;fill-rule:nonzero;fill:rgb(10.196078%,43.529412%,69.019608%);fill-opacity:1;" />
<path d="M 237.640625 190.25 C 237.804688 189.847656 238.058594 189.46875 238.253906 189.078125 C 238.042969 189.46875 237.816406 189.835938 237.640625 190.25 Z M 237.640625 190.25 " style=" stroke:none;fill-rule:nonzero;fill:rgb(10.196078%,43.529412%,69.019608%);fill-opacity:1;" />
<path d="M 238.261719 204.820312 C 239.945312 208.101562 242.617188 210.773438 245.898438 212.460938 C 246.304688 212.660156 246.6875 212.914062 247.109375 213.089844 C 247.527344 213.265625 247.984375 213.351562 248.386719 213.492188 C 249.058594 213.738281 249.746094 213.9375 250.441406 214.097656 C 252.648438 214.527344 254.921875 214.527344 257.128906 214.097656 C 257.824219 213.9375 258.511719 213.738281 259.183594 213.492188 C 259.613281 213.351562 260.058594 213.257812 260.460938 213.089844 C 260.867188 212.925781 261.269531 212.660156 261.671875 212.460938 C 264.953125 210.773438 267.625 208.101562 269.308594 204.820312 C 269.511719 204.417969 269.765625 204.042969 269.929688 203.628906 C 270.097656 203.21875 270.191406 202.753906 270.332031 202.324219 C 270.574219 201.660156 270.777344 200.976562 270.9375 200.285156 C 271.476562 197.367188 271.269531 194.355469 270.332031 191.535156 C 270.191406 191.105469 270.105469 190.660156 269.929688 190.230469 C 269.757812 189.800781 269.511719 189.453125 269.316406 189.058594 C 267.632812 185.757812 264.945312 183.074219 261.644531 181.390625 C 261.25 181.191406 260.871094 180.9375 260.46875 180.769531 C 260.066406 180.605469 259.59375 180.507812 259.167969 180.367188 C 256.347656 179.433594 253.335938 179.226562 250.414062 179.765625 C 249.726562 179.925781 249.050781 180.121094 248.382812 180.359375 C 247.945312 180.507812 247.507812 180.597656 247.070312 180.769531 C 246.632812 180.945312 246.292969 181.191406 245.890625 181.390625 C 242.59375 183.078125 239.910156 185.761719 238.222656 189.058594 C 238.03125 189.453125 237.777344 189.828125 237.609375 190.230469 C 237.445312 190.632812 237.347656 191.105469 237.207031 191.535156 C 236.078125 195.039062 236.078125 198.8125 237.207031 202.316406 C 237.347656 202.746094 237.4375 203.191406 237.609375 203.621094 C 237.789062 204.050781 238.042969 204.425781 238.261719 204.820312 Z M 238.261719 204.820312 " style=" stroke:none;fill-rule:nonzero;fill:rgb(93.333333%,78.823529%,66.27451%);fill-opacity:1;" />
<path d="M 269.335938 189.066406 C 267.753906 185.695312 265.039062 182.980469 261.664062 181.402344 C 264.964844 183.082031 267.652344 185.765625 269.335938 189.066406 Z M 269.335938 189.066406 " style=" stroke:none;fill-rule:nonzero;fill:rgb(10.196078%,43.529412%,69.019608%);fill-opacity:1;" />
<path d="M 261.671875 212.46875 C 265.027344 210.886719 267.730469 208.1875 269.3125 204.828125 C 267.625 208.113281 264.953125 210.785156 261.671875 212.46875 Z M 261.671875 212.46875 " style=" stroke:none;fill-rule:nonzero;fill:rgb(10.196078%,43.529412%,69.019608%);fill-opacity:1;" />
<path d="M 237.238281 202.335938 C 237.378906 202.773438 237.464844 203.210938 237.640625 203.640625 C 237.464844 203.21875 237.378906 202.765625 237.238281 202.335938 Z M 237.238281 202.335938 " style=" stroke:none;fill-rule:nonzero;fill:rgb(10.196078%,43.529412%,69.019608%);fill-opacity:1;" />
<path d="M 247.101562 180.789062 C 247.519531 180.613281 247.976562 180.527344 248.414062 180.378906 C 247.976562 180.515625 247.527344 180.613281 247.101562 180.789062 Z M 247.101562 180.789062 " style=" stroke:none;fill-rule:nonzero;fill:rgb(10.196078%,43.529412%,69.019608%);fill-opacity:1;" />
<path d="M 245.917969 181.410156 C 242.546875 182.996094 239.835938 185.707031 238.253906 189.078125 C 239.9375 185.777344 242.621094 183.097656 245.917969 181.410156 Z M 245.917969 181.410156 " style=" stroke:none;fill-rule:nonzero;fill:rgb(10.196078%,43.529412%,69.019608%);fill-opacity:1;" />
<path d="M 260.480469 213.097656 C 260.078125 213.265625 259.605469 213.363281 259.203125 213.5 C 259.632812 213.363281 260.070312 213.273438 260.480469 213.097656 Z M 260.480469 213.097656 " style=" stroke:none;fill-rule:nonzero;fill:rgb(10.196078%,43.529412%,69.019608%);fill-opacity:1;" />
<path d="M 270.351562 202.335938 C 270.210938 202.765625 270.125 203.210938 269.949219 203.640625 C 270.125 203.210938 270.210938 202.765625 270.351562 202.335938 Z M 270.351562 202.335938 " style=" stroke:none;fill-rule:nonzero;fill:rgb(10.196078%,43.529412%,69.019608%);fill-opacity:1;" />
<path d="M 269.949219 190.25 C 270.125 190.667969 270.210938 191.125 270.351562 191.554688 C 270.210938 191.125 270.125 190.679688 269.949219 190.25 Z M 269.949219 190.25 " style=" stroke:none;fill-rule:nonzero;fill:rgb(10.196078%,43.529412%,69.019608%);fill-opacity:1;" />
<path d="M 248.386719 213.503906 C 247.957031 213.363281 247.511719 213.265625 247.109375 213.101562 C 247.519531 213.273438 247.957031 213.363281 248.386719 213.503906 Z M 248.386719 213.503906 " style=" stroke:none;fill-rule:nonzero;fill:rgb(10.196078%,43.529412%,69.019608%);fill-opacity:1;" />
<path d="M 259.1875 180.386719 C 259.613281 180.527344 260.0625 180.613281 260.488281 180.789062 C 260.0625 180.613281 259.625 180.527344 259.1875 180.386719 Z M 259.1875 180.386719 " style=" stroke:none;fill-rule:nonzero;fill:rgb(10.196078%,43.529412%,69.019608%);fill-opacity:1;" />
<path d="M 237.238281 191.554688 C 237.378906 191.125 237.464844 190.679688 237.640625 190.25 C 237.464844 190.679688 237.378906 191.125 237.238281 191.554688 Z M 237.238281 191.554688 " style=" stroke:none;fill-rule:nonzero;fill:rgb(10.196078%,43.529412%,69.019608%);fill-opacity:1;" />
<path d="M 238.261719 204.820312 C 239.84375 208.175781 242.542969 210.878906 245.898438 212.460938 C 242.617188 210.773438 239.945312 208.101562 238.261719 204.820312 Z M 238.261719 204.820312 " style=" stroke:none;fill-rule:nonzero;fill:rgb(10.196078%,43.529412%,69.019608%);fill-opacity:1;" />
<path d="M 288.800781 280.085938 C 265.828125 285.917969 241.761719 285.917969 218.789062 280.085938 L 218.789062 319.464844 L 288.800781 319.464844 Z M 288.800781 280.085938 " style=" stroke:none;fill-rule:nonzero;fill:rgb(47.058824%,72.54902%,92.156863%);fill-opacity:1;" />
<path d="M 315.054688 319.464844 L 192.535156 319.464844 L 192.535156 354.472656 L 315.054688 354.472656 Z M 315.054688 319.464844 " style=" stroke:none;fill-rule:nonzero;fill:rgb(10.196078%,43.529412%,69.019608%);fill-opacity:1;" />
<path d="M 253.792969 30.664062 L 253.792969 65.671875 C 297.273438 65.71875 332.511719 100.957031 332.558594 144.433594 C 332.511719 100.957031 297.273438 65.71875 253.792969 65.671875 L 253.792969 179.441406 C 255.628906 179.46875 257.449219 179.785156 259.1875 180.386719 C 259.625 180.527344 260.0625 180.613281 260.488281 180.789062 C 260.917969 180.964844 261.269531 181.210938 261.664062 181.410156 C 265.039062 182.992188 267.753906 185.703125 269.339844 189.078125 C 269.539062 189.46875 269.773438 189.835938 269.949219 190.25 C 270.125 190.660156 270.214844 191.125 270.355469 191.554688 C 270.957031 193.289062 271.277344 195.109375 271.300781 196.945312 C 271.292969 198.066406 271.179688 199.1875 270.957031 200.289062 C 270.800781 200.980469 270.597656 201.660156 270.355469 202.328125 C 270.214844 202.753906 270.125 203.203125 269.949219 203.628906 C 269.777344 204.058594 269.53125 204.417969 269.328125 204.820312 C 267.746094 208.179688 265.046875 210.878906 261.691406 212.460938 C 261.289062 212.664062 260.910156 212.914062 260.484375 213.089844 C 260.054688 213.265625 259.609375 213.355469 259.207031 213.492188 C 258.53125 213.734375 257.84375 213.9375 257.148438 214.097656 C 256.046875 214.320312 254.921875 214.4375 253.796875 214.449219 L 253.796875 258.207031 C 279.179688 258.230469 303.839844 249.722656 323.808594 234.050781 C 373.300781 195.339844 382.042969 123.839844 343.335938 74.34375 C 321.789062 46.796875 288.769531 30.6875 253.792969 30.664062 Z M 253.792969 30.664062 " style=" stroke:none;fill-rule:nonzero;fill:rgb(94.509804%,83.137255%,72.941176%);fill-opacity:1;" />
<path d="M 250.453125 214.105469 C 249.753906 213.945312 249.070312 213.742188 248.394531 213.5 C 247.964844 213.359375 247.519531 213.273438 247.117188 213.097656 C 246.714844 212.925781 246.3125 212.671875 245.910156 212.46875 C 242.554688 210.886719 239.851562 208.1875 238.269531 204.828125 C 238.070312 204.425781 237.824219 204.050781 237.648438 203.640625 C 237.472656 203.226562 237.386719 202.765625 237.246094 202.335938 C 236.644531 200.601562 236.320312 198.78125 236.292969 196.945312 C 236.316406 195.109375 236.632812 193.285156 237.238281 191.550781 C 237.378906 191.125 237.464844 190.675781 237.640625 190.25 C 237.816406 189.820312 238.050781 189.46875 238.253906 189.074219 C 239.058594 187.414062 240.128906 185.890625 241.421875 184.570312 L 198.101562 141.25 L 241.421875 184.570312 C 242.742188 183.28125 244.257812 182.210938 245.917969 181.410156 C 246.320312 181.207031 246.691406 180.964844 247.101562 180.789062 C 247.511719 180.613281 247.976562 180.515625 248.414062 180.375 C 249.078125 180.140625 249.757812 179.941406 250.445312 179.78125 C 251.546875 179.558594 252.671875 179.445312 253.796875 179.441406 L 253.796875 65.671875 C 210.316406 65.71875 175.082031 100.953125 175.03125 144.433594 C 175.082031 100.953125 210.316406 65.71875 253.796875 65.671875 L 253.796875 30.664062 C 190.964844 30.707031 140.0625 81.679688 140.105469 144.511719 C 140.128906 179.484375 156.234375 212.503906 183.785156 234.050781 C 203.753906 249.722656 228.410156 258.230469 253.796875 258.207031 L 253.796875 214.449219 C 252.671875 214.441406 251.554688 214.328125 250.453125 214.105469 Z M 250.453125 214.105469 " style=" stroke:none;fill-rule:nonzero;fill:rgb(93.333333%,78.823529%,66.27451%);fill-opacity:1;" />
<path d="M 0 354.472656 L 70.011719 354.472656 L 70.011719 424.484375 L 0 424.484375 Z M 0 354.472656 " style=" stroke:none;fill-rule:nonzero;fill:rgb(47.058824%,72.54902%,92.156863%);fill-opacity:1;" />
<path d="M 0 424.484375 L 70.011719 424.484375 L 70.011719 494.496094 L 0 494.496094 Z M 0 424.484375 " style=" stroke:none;fill-rule:nonzero;fill:rgb(35.294118%,66.666667%,90.588235%);fill-opacity:1;" />
<path d="M 315.054688 354.472656 L 140.023438 354.472656 L 140.023438 424.484375 L 367.566406 424.484375 L 367.566406 354.472656 Z M 315.054688 354.472656 " style=" stroke:none;fill-rule:nonzero;fill:rgb(47.058824%,72.54902%,92.156863%);fill-opacity:1;" />
<path d="M 140.023438 424.484375 L 367.566406 424.484375 L 367.566406 494.496094 L 140.023438 494.496094 Z M 140.023438 424.484375 " style=" stroke:none;fill-rule:nonzero;fill:rgb(35.294118%,66.666667%,90.588235%);fill-opacity:1;" />
<path d="M 437.578125 424.484375 L 507.589844 424.484375 L 507.589844 494.496094 L 437.578125 494.496094 Z M 437.578125 424.484375 " style=" stroke:none;fill-rule:nonzero;fill:rgb(35.294118%,66.666667%,90.588235%);fill-opacity:1;" />
<path d="M 437.578125 354.472656 L 507.589844 354.472656 L 507.589844 424.484375 L 437.578125 424.484375 Z M 437.578125 354.472656 " style=" stroke:none;fill-rule:nonzero;fill:rgb(47.058824%,72.54902%,92.156863%);fill-opacity:1;" />
<path d="M 253.792969 223.199219 C 239.296875 223.1875 227.550781 211.421875 227.5625 196.921875 C 227.570312 189.976562 230.328125 183.316406 235.234375 178.398438 C 245.628906 168.503906 261.960938 168.503906 272.355469 178.398438 C 282.597656 188.664062 282.582031 205.289062 272.316406 215.53125 C 267.398438 220.433594 260.738281 223.191406 253.792969 223.199219 Z M 253.792969 188.191406 C 248.960938 188.203125 245.050781 192.128906 245.0625 196.964844 C 245.066406 199.269531 245.980469 201.480469 247.609375 203.113281 C 251.078125 206.398438 256.511719 206.398438 259.984375 203.113281 C 263.398438 199.695312 263.398438 194.15625 259.984375 190.738281 C 258.34375 189.09375 256.117188 188.175781 253.792969 188.191406 Z M 253.792969 188.191406 " style=" stroke:none;fill-rule:nonzero;fill:rgb(67.058824%,13.72549%,0%);fill-opacity:1;" />
<path d="M 332.558594 153.1875 C 327.726562 153.1875 323.808594 149.265625 323.808594 144.433594 C 323.808594 105.769531 292.460938 74.421875 253.796875 74.421875 C 215.128906 74.421875 183.785156 105.769531 183.785156 144.433594 C 183.785156 149.269531 179.863281 153.1875 175.03125 153.1875 C 170.199219 153.1875 166.28125 149.265625 166.28125 144.433594 C 166.28125 96.101562 205.464844 56.917969 253.796875 56.917969 C 302.128906 56.917969 341.3125 96.101562 341.3125 144.433594 C 341.308594 149.269531 337.390625 153.1875 332.558594 153.1875 Z M 332.558594 153.1875 " style=" stroke:none;fill-rule:nonzero;fill:rgb(94.509804%,94.901961%,94.901961%);fill-opacity:1;" />
<path d="M 253.792969 223.199219 C 239.296875 223.1875 227.550781 211.421875 227.5625 196.921875 C 227.570312 189.976562 230.328125 183.316406 235.234375 178.398438 C 245.628906 168.503906 261.960938 168.503906 272.355469 178.398438 C 282.597656 188.664062 282.582031 205.289062 272.316406 215.53125 C 267.398438 220.433594 260.738281 223.191406 253.792969 223.199219 Z M 253.792969 188.191406 C 248.960938 188.203125 245.050781 192.128906 245.0625 196.964844 C 245.066406 199.269531 245.980469 201.480469 247.609375 203.113281 C 251.078125 206.398438 256.511719 206.398438 259.984375 203.113281 C 263.398438 199.695312 263.398438 194.15625 259.984375 190.738281 C 258.34375 189.09375 256.117188 188.175781 253.792969 188.191406 Z M 253.792969 188.191406 " style=" stroke:none;fill-rule:nonzero;fill:rgb(67.058824%,13.72549%,0%);fill-opacity:1;" />
<path d="M 241.417969 193.320312 C 239.097656 193.320312 236.875 192.398438 235.234375 190.757812 L 191.914062 147.4375 C 188.554688 143.960938 188.652344 138.417969 192.128906 135.0625 C 195.519531 131.785156 200.894531 131.785156 204.289062 135.0625 L 247.609375 178.382812 C 251.023438 181.800781 251.023438 187.339844 247.605469 190.757812 C 245.964844 192.398438 243.738281 193.320312 241.417969 193.320312 Z M 241.417969 193.320312 " style=" stroke:none;fill-rule:nonzero;fill:rgb(67.058824%,13.72549%,0%);fill-opacity:1;" />
</g>
</svg>