<svg xmlns="http://www.w3.org/2000/svg" height="511pt" version="1.1" viewBox="1 -75 511.99923 511" width="511pt">
<g id="surface1">
<path d="M 141.242188 168.222656 L 105.929688 168.222656 L 105.929688 344.773438 L 141.242188 344.773438 Z M 141.242188 168.222656 " style=" stroke:none;fill-rule:nonzero;fill:rgb(11.764706%,50.588235%,80.784314%);fill-opacity:1;" />
<path d="M 344.277344 141.742188 L 344.277344 106.429688 L 167.722656 106.429688 L 167.722656 141.742188 Z M 344.277344 141.742188 " style=" stroke:none;fill-rule:nonzero;fill:rgb(11.764706%,50.588235%,80.784314%);fill-opacity:1;" />
<path d="M 361.929688 106.429688 L 361.929688 71.121094 L 150.070312 71.121094 L 150.070312 106.429688 Z M 361.929688 106.429688 " style=" stroke:none;fill-rule:nonzero;fill:rgb(10.196078%,43.529412%,69.019608%);fill-opacity:1;" />
<path d="M 105.929688 150.566406 L 70.621094 150.566406 L 70.621094 362.429688 L 105.929688 362.429688 Z M 105.929688 150.566406 " style=" stroke:none;fill-rule:nonzero;fill:rgb(10.196078%,43.529412%,69.019608%);fill-opacity:1;" />
<path d="M 370.757812 168.222656 L 370.757812 344.773438 L 406.066406 344.773438 L 406.066406 168.222656 Z M 370.757812 168.222656 " style=" stroke:none;fill-rule:nonzero;fill:rgb(11.764706%,50.588235%,80.784314%);fill-opacity:1;" />
<path d="M 441.378906 150.566406 L 406.066406 150.566406 L 406.066406 362.429688 L 441.378906 362.429688 Z M 441.378906 150.566406 " style=" stroke:none;fill-rule:nonzero;fill:rgb(10.196078%,43.529412%,69.019608%);fill-opacity:1;" />
<path d="M 141.242188 256.5 L 141.242188 327.121094 L 370.757812 327.121094 L 370.757812 256.5 Z M 141.242188 256.5 " style=" stroke:none;fill-rule:nonzero;fill:rgb(35.294118%,66.666667%,90.588235%);fill-opacity:1;" />
<path d="M 326.621094 185.878906 L 326.621094 141.742188 L 256 141.742188 L 256 256.5 L 370.757812 256.5 L 370.757812 185.878906 Z M 326.621094 185.878906 " style=" stroke:none;fill-rule:nonzero;fill:rgb(58.823529%,78.431373%,93.72549%);fill-opacity:1;" />
<path d="M 256 141.742188 L 185.378906 141.742188 L 185.378906 185.878906 L 141.242188 185.878906 L 141.242188 256.5 L 256 256.5 Z M 256 141.742188 " style=" stroke:none;fill-rule:nonzero;fill:rgb(47.058824%,72.54902%,92.156863%);fill-opacity:1;" />
<path d="M 256 0.5 L 326.621094 0.5 L 326.621094 71.121094 L 256 71.121094 Z M 256 0.5 " style=" stroke:none;fill-rule:nonzero;fill:rgb(58.823529%,78.431373%,93.72549%);fill-opacity:1;" />
<path d="M 185.378906 0.5 L 256 0.5 L 256 71.121094 L 185.378906 71.121094 Z M 185.378906 0.5 " style=" stroke:none;fill-rule:nonzero;fill:rgb(47.058824%,72.54902%,92.156863%);fill-opacity:1;" />
<path d="M 0 185.878906 L 70.621094 185.878906 L 70.621094 256.5 L 0 256.5 Z M 0 185.878906 " style=" stroke:none;fill-rule:nonzero;fill:rgb(47.058824%,72.54902%,92.156863%);fill-opacity:1;" />
<path d="M 0 256.5 L 70.621094 256.5 L 70.621094 327.121094 L 0 327.121094 Z M 0 256.5 " style=" stroke:none;fill-rule:nonzero;fill:rgb(35.294118%,66.666667%,90.588235%);fill-opacity:1;" />
<path d="M 441.378906 185.878906 L 512 185.878906 L 512 256.5 L 441.378906 256.5 Z M 441.378906 185.878906 " style=" stroke:none;fill-rule:nonzero;fill:rgb(58.823529%,78.431373%,93.72549%);fill-opacity:1;" />
<path d="M 441.378906 256.5 L 512 256.5 L 512 327.121094 L 441.378906 327.121094 Z M 441.378906 256.5 " style=" stroke:none;fill-rule:nonzero;fill:rgb(35.294118%,66.666667%,90.588235%);fill-opacity:1;" />
</g>
</svg>