<svg xmlns="http://www.w3.org/2000/svg" height="511pt" version="1.1" viewBox="1 -150 511.99996 511" width="511pt">
<g id="surface1">
<path d="M 264.828125 18.15625 L 264.828125 194.707031 L 300.136719 194.707031 L 300.136719 18.15625 Z M 264.828125 18.15625 " style=" stroke:none;fill-rule:nonzero;fill:rgb(11.764706%,50.588235%,80.784314%);fill-opacity:1;" />
<path d="M 335.449219 0.5 L 300.136719 0.5 L 300.136719 212.363281 L 335.449219 212.363281 Z M 335.449219 0.5 " style=" stroke:none;fill-rule:nonzero;fill:rgb(10.196078%,43.529412%,69.019608%);fill-opacity:1;" />
<path d="M 0 106.429688 L 264.828125 106.429688 L 264.828125 177.050781 L 0 177.050781 Z M 0 106.429688 " style=" stroke:none;fill-rule:nonzero;fill:rgb(35.294118%,66.666667%,90.588235%);fill-opacity:1;" />
<path d="M 0 35.808594 L 264.828125 35.808594 L 264.828125 106.429688 L 0 106.429688 Z M 0 35.808594 " style=" stroke:none;fill-rule:nonzero;fill:rgb(47.058824%,72.54902%,92.156863%);fill-opacity:1;" />
<path d="M 335.449219 106.429688 L 370.757812 106.429688 L 370.757812 177.050781 L 335.449219 177.050781 Z M 335.449219 106.429688 " style=" stroke:none;fill-rule:nonzero;fill:rgb(35.294118%,66.666667%,90.588235%);fill-opacity:1;" />
<path d="M 335.449219 35.808594 L 370.757812 35.808594 L 370.757812 106.429688 L 335.449219 106.429688 Z M 335.449219 35.808594 " style=" stroke:none;fill-rule:nonzero;fill:rgb(47.058824%,72.54902%,92.156863%);fill-opacity:1;" />
<path d="M 370.757812 35.808594 L 406.070312 35.808594 L 406.070312 106.429688 L 370.757812 106.429688 Z M 370.757812 35.808594 " style=" stroke:none;fill-rule:nonzero;fill:rgb(47.058824%,72.54902%,92.156863%);fill-opacity:1;" />
<path d="M 370.757812 106.429688 L 406.070312 106.429688 L 406.070312 177.050781 L 370.757812 177.050781 Z M 370.757812 106.429688 " style=" stroke:none;fill-rule:nonzero;fill:rgb(35.294118%,66.666667%,90.588235%);fill-opacity:1;" />
<path d="M 441.378906 35.808594 L 476.6875 35.808594 L 476.6875 106.429688 L 441.378906 106.429688 Z M 441.378906 35.808594 " style=" stroke:none;fill-rule:nonzero;fill:rgb(47.058824%,72.54902%,92.156863%);fill-opacity:1;" />
<path d="M 441.378906 106.429688 L 476.6875 106.429688 L 476.6875 177.050781 L 441.378906 177.050781 Z M 441.378906 106.429688 " style=" stroke:none;fill-rule:nonzero;fill:rgb(35.294118%,66.666667%,90.588235%);fill-opacity:1;" />
<path d="M 476.6875 35.808594 L 512 35.808594 L 512 106.429688 L 476.6875 106.429688 Z M 476.6875 35.808594 " style=" stroke:none;fill-rule:nonzero;fill:rgb(47.058824%,72.54902%,92.156863%);fill-opacity:1;" />
<path d="M 476.6875 106.429688 L 512 106.429688 L 512 177.050781 L 476.6875 177.050781 Z M 476.6875 106.429688 " style=" stroke:none;fill-rule:nonzero;fill:rgb(35.294118%,66.666667%,90.588235%);fill-opacity:1;" />
<path d="M 406.066406 35.808594 L 441.378906 35.808594 L 441.378906 106.429688 L 406.066406 106.429688 Z M 406.066406 35.808594 " style=" stroke:none;fill-rule:nonzero;fill:rgb(47.058824%,72.54902%,92.156863%);fill-opacity:1;" />
<path d="M 406.066406 106.429688 L 441.378906 106.429688 L 441.378906 177.050781 L 406.066406 177.050781 Z M 406.066406 106.429688 " style=" stroke:none;fill-rule:nonzero;fill:rgb(35.294118%,66.666667%,90.588235%);fill-opacity:1;" />
<path d="M 361.929688 185.878906 C 357.054688 185.878906 353.101562 181.925781 353.101562 177.050781 L 353.101562 35.808594 C 353.101562 30.933594 357.054688 26.984375 361.929688 26.984375 C 366.804688 26.984375 370.757812 30.9375 370.757812 35.808594 L 370.757812 177.050781 C 370.757812 181.925781 366.804688 185.878906 361.929688 185.878906 Z M 361.929688 185.878906 " style=" stroke:none;fill-rule:nonzero;fill:rgb(10.196078%,43.529412%,69.019608%);fill-opacity:1;" />
<path d="M 397.242188 185.878906 C 392.367188 185.878906 388.414062 181.925781 388.414062 177.050781 L 388.414062 35.808594 C 388.414062 30.933594 392.367188 26.984375 397.242188 26.984375 C 402.117188 26.984375 406.066406 30.9375 406.066406 35.808594 L 406.066406 177.050781 C 406.066406 181.925781 402.117188 185.878906 397.242188 185.878906 Z M 397.242188 185.878906 " style=" stroke:none;fill-rule:nonzero;fill:rgb(10.196078%,43.529412%,69.019608%);fill-opacity:1;" />
<path d="M 432.550781 185.878906 C 427.675781 185.878906 423.722656 181.925781 423.722656 177.050781 L 423.722656 35.808594 C 423.722656 30.933594 427.675781 26.984375 432.550781 26.984375 C 437.425781 26.984375 441.378906 30.9375 441.378906 35.808594 L 441.378906 177.050781 C 441.378906 181.925781 437.425781 185.878906 432.550781 185.878906 Z M 432.550781 185.878906 " style=" stroke:none;fill-rule:nonzero;fill:rgb(10.196078%,43.529412%,69.019608%);fill-opacity:1;" />
<path d="M 467.863281 185.878906 C 462.984375 185.878906 459.035156 181.925781 459.035156 177.050781 L 459.035156 35.808594 C 459.035156 30.933594 462.988281 26.984375 467.863281 26.984375 C 472.734375 26.984375 476.6875 30.9375 476.6875 35.808594 L 476.6875 177.050781 C 476.6875 181.925781 472.738281 185.878906 467.863281 185.878906 Z M 467.863281 185.878906 " style=" stroke:none;fill-rule:nonzero;fill:rgb(10.196078%,43.529412%,69.019608%);fill-opacity:1;" />
<path d="M 503.171875 185.878906 C 498.296875 185.878906 494.34375 181.925781 494.34375 177.050781 L 494.34375 35.808594 C 494.34375 30.933594 498.296875 26.984375 503.171875 26.984375 C 508.046875 26.984375 512 30.9375 512 35.808594 L 512 177.050781 C 512 181.925781 508.046875 185.878906 503.171875 185.878906 Z M 503.171875 185.878906 " style=" stroke:none;fill-rule:nonzero;fill:rgb(10.196078%,43.529412%,69.019608%);fill-opacity:1;" />
</g>
</svg>