<svg xmlns="http://www.w3.org/2000/svg" height="511pt" version="1.1" viewBox="-17 1 511 511.99923" width="511pt">
<g id="surface1">
<path d="M 18.15625 141.242188 L 194.707031 141.242188 L 194.707031 105.929688 L 18.15625 105.929688 Z M 18.15625 141.242188 " style=" stroke:none;fill-rule:nonzero;fill:rgb(11.764706%,50.588235%,80.784314%);fill-opacity:1;" />
<path d="M 194.707031 105.929688 L 212.363281 105.929688 L 212.363281 70.621094 L 0.5 70.621094 L 0.5 105.929688 Z M 194.707031 105.929688 " style=" stroke:none;fill-rule:nonzero;fill:rgb(10.196078%,43.529412%,69.019608%);fill-opacity:1;" />
<path d="M 282.980469 370.757812 L 282.980469 406.066406 L 459.535156 406.066406 L 459.535156 370.757812 Z M 282.980469 370.757812 " style=" stroke:none;fill-rule:nonzero;fill:rgb(11.764706%,50.588235%,80.784314%);fill-opacity:1;" />
<path d="M 265.328125 406.066406 L 265.328125 441.378906 L 477.1875 441.378906 L 477.1875 406.066406 Z M 265.328125 406.066406 " style=" stroke:none;fill-rule:nonzero;fill:rgb(10.196078%,43.529412%,69.019608%);fill-opacity:1;" />
<path d="M 221.1875 344.277344 L 256.5 344.277344 L 256.5 167.722656 L 221.1875 167.722656 Z M 221.1875 344.277344 " style=" stroke:none;fill-rule:nonzero;fill:rgb(10.196078%,43.529412%,69.019608%);fill-opacity:1;" />
<path d="M 256.5 256 L 256.5 326.621094 L 300.636719 326.621094 L 300.636719 370.757812 L 371.257812 370.757812 L 371.257812 256 Z M 256.5 256 " style=" stroke:none;fill-rule:nonzero;fill:rgb(35.294118%,66.666667%,90.588235%);fill-opacity:1;" />
<path d="M 441.878906 203.035156 C 441.878906 193.285156 433.972656 185.378906 424.222656 185.378906 L 256.5 185.378906 L 256.5 256 L 371.257812 256 L 371.257812 370.757812 L 441.878906 370.757812 Z M 441.878906 203.035156 " style=" stroke:none;fill-rule:nonzero;fill:rgb(47.058824%,72.54902%,92.156863%);fill-opacity:1;" />
<path d="M 106.429688 141.242188 L 35.808594 141.242188 L 35.808594 308.964844 C 35.808594 318.714844 43.714844 326.621094 53.464844 326.621094 L 221.1875 326.621094 L 221.1875 256 L 106.429688 256 Z M 106.429688 141.242188 " style=" stroke:none;fill-rule:nonzero;fill:rgb(35.294118%,66.666667%,90.588235%);fill-opacity:1;" />
<path d="M 177.050781 185.378906 L 177.050781 141.242188 L 106.429688 141.242188 L 106.429688 256 L 221.1875 256 L 221.1875 185.378906 Z M 177.050781 185.378906 " style=" stroke:none;fill-rule:nonzero;fill:rgb(47.058824%,72.54902%,92.156863%);fill-opacity:1;" />
<path d="M 35.808594 0 L 106.429688 0 L 106.429688 70.621094 L 35.808594 70.621094 Z M 35.808594 0 " style=" stroke:none;fill-rule:nonzero;fill:rgb(35.294118%,66.666667%,90.588235%);fill-opacity:1;" />
<path d="M 106.429688 0 L 177.050781 0 L 177.050781 70.621094 L 106.429688 70.621094 Z M 106.429688 0 " style=" stroke:none;fill-rule:nonzero;fill:rgb(47.058824%,72.54902%,92.156863%);fill-opacity:1;" />
<path d="M 371.257812 441.378906 L 441.878906 441.378906 L 441.878906 512 L 371.257812 512 Z M 371.257812 441.378906 " style=" stroke:none;fill-rule:nonzero;fill:rgb(47.058824%,72.54902%,92.156863%);fill-opacity:1;" />
<path d="M 300.636719 441.378906 L 371.257812 441.378906 L 371.257812 512 L 300.636719 512 Z M 300.636719 441.378906 " style=" stroke:none;fill-rule:nonzero;fill:rgb(35.294118%,66.666667%,90.588235%);fill-opacity:1;" />
</g>
</svg>