<svg xmlns="http://www.w3.org/2000/svg" height="511.99998pt" version="1.1" viewBox="1 1 511.99998 511.99998" width="511.99998pt">
<g id="surface1">
<path d="M 238.34375 238.34375 L 238.34375 203.035156 L 61.792969 203.035156 L 61.792969 238.34375 Z M 238.34375 238.34375 " style=" stroke:none;fill-rule:nonzero;fill:rgb(11.764706%,50.588235%,80.784314%);fill-opacity:1;" />
<path d="M 335.449219 203.035156 L 335.449219 238.34375 L 512 238.34375 L 512 203.035156 Z M 335.449219 203.035156 " style=" stroke:none;fill-rule:nonzero;fill:rgb(11.764706%,50.588235%,80.784314%);fill-opacity:1;" />
<path d="M 335.449219 35.3125 L 512 35.3125 L 512 0 L 335.449219 0 Z M 335.449219 35.3125 " style=" stroke:none;fill-rule:nonzero;fill:rgb(11.764706%,50.588235%,80.784314%);fill-opacity:1;" />
<path d="M 35.3125 0 L 0 0 L 0 176.550781 L 35.3125 176.550781 Z M 35.3125 0 " style=" stroke:none;fill-rule:nonzero;fill:rgb(11.764706%,50.588235%,80.784314%);fill-opacity:1;" />
<path d="M 238.34375 353.101562 C 189.589844 353.101562 150.070312 313.582031 150.070312 264.828125 L 150.070312 238.34375 L 79.449219 238.34375 L 79.449219 256 C 79.433594 324.867188 129.089844 383.703125 196.980469 395.265625 C 205.523438 396.621094 211.828125 403.972656 211.863281 412.628906 L 211.863281 512 L 282.484375 512 L 282.484375 353.101562 Z M 238.34375 353.101562 " style=" stroke:none;fill-rule:nonzero;fill:rgb(35.294118%,66.666667%,90.588235%);fill-opacity:1;" />
<path d="M 353.101562 264.828125 C 353.101562 274.578125 345.199219 282.484375 335.449219 282.484375 L 238.34375 282.484375 C 228.59375 282.484375 220.6875 274.578125 220.6875 264.828125 L 220.6875 238.34375 L 150.070312 238.34375 L 150.070312 264.828125 C 150.070312 313.582031 189.589844 353.101562 238.34375 353.101562 L 335.449219 353.101562 C 384.203125 353.101562 423.722656 313.582031 423.722656 264.828125 L 423.722656 238.34375 L 353.101562 238.34375 Z M 353.101562 264.828125 " style=" stroke:none;fill-rule:nonzero;fill:rgb(47.058824%,72.54902%,92.156863%);fill-opacity:1;" />
<path d="M 335.449219 353.101562 L 282.480469 353.101562 L 282.480469 512 L 353.101562 512 L 353.101562 413.90625 C 353.210938 404.796875 360.160156 397.234375 369.230469 396.359375 C 440.542969 388.160156 494.363281 327.78125 494.34375 256 L 494.34375 238.34375 L 423.722656 238.34375 L 423.722656 264.828125 C 423.722656 313.582031 384.203125 353.101562 335.449219 353.101562 Z M 335.449219 353.101562 " style=" stroke:none;fill-rule:nonzero;fill:rgb(58.823529%,78.431373%,93.72549%);fill-opacity:1;" />
<path d="M 423.722656 35.3125 L 494.34375 35.3125 L 494.34375 203.035156 L 423.722656 203.035156 Z M 423.722656 35.3125 " style=" stroke:none;fill-rule:nonzero;fill:rgb(58.823529%,78.431373%,93.72549%);fill-opacity:1;" />
<path d="M 353.101562 35.3125 L 423.722656 35.3125 L 423.722656 203.035156 L 353.101562 203.035156 Z M 353.101562 35.3125 " style=" stroke:none;fill-rule:nonzero;fill:rgb(47.058824%,72.54902%,92.156863%);fill-opacity:1;" />
<path d="M 97.105469 88.277344 L 35.3125 88.277344 L 35.3125 158.894531 L 61.792969 158.894531 C 71.542969 158.894531 79.449219 166.800781 79.449219 176.550781 L 79.449219 203.035156 L 150.070312 203.035156 L 150.070312 141.242188 C 150.070312 111.988281 126.355469 88.277344 97.105469 88.277344 Z M 97.105469 88.277344 " style=" stroke:none;fill-rule:nonzero;fill:rgb(35.294118%,66.666667%,90.588235%);fill-opacity:1;" />
<path d="M 220.691406 123.585938 C 220.691406 65.082031 173.261719 17.65625 114.757812 17.65625 L 35.3125 17.65625 L 35.3125 88.277344 L 97.105469 88.277344 C 126.355469 88.277344 150.070312 111.988281 150.070312 141.242188 L 150.070312 203.035156 L 220.691406 203.035156 Z M 220.691406 123.585938 " style=" stroke:none;fill-rule:nonzero;fill:rgb(47.058824%,72.54902%,92.156863%);fill-opacity:1;" />
</g>
</svg>