<svg xmlns="http://www.w3.org/2000/svg" height="511pt" version="1.1" viewBox="1 1 511.99998 511" width="511pt">
<g id="surface1">
<path d="M 476.6875 177.050781 L 512 177.050781 L 512 0.5 L 476.6875 0.5 Z M 476.6875 177.050781 " style=" stroke:none;fill-rule:nonzero;fill:rgb(10.196078%,43.529412%,69.019608%);fill-opacity:1;" />
<path d="M 176.550781 35.808594 L 176.550781 0.5 L 0 0.5 L 0 35.808594 Z M 176.550781 35.808594 " style=" stroke:none;fill-rule:nonzero;fill:rgb(11.764706%,50.588235%,80.784314%);fill-opacity:1;" />
<path d="M 158.898438 256.5 L 176.550781 256.5 L 176.550781 221.191406 L 0 221.191406 L 0 256.5 Z M 158.898438 256.5 " style=" stroke:none;fill-rule:nonzero;fill:rgb(11.764706%,50.588235%,80.784314%);fill-opacity:1;" />
<path d="M 450.207031 256.5 L 450.207031 221.191406 L 273.65625 221.191406 L 273.65625 256.5 Z M 450.207031 256.5 " style=" stroke:none;fill-rule:nonzero;fill:rgb(11.764706%,50.588235%,80.784314%);fill-opacity:1;" />
<path d="M 256 450.707031 L 194.207031 450.707031 C 135.703125 450.707031 88.277344 403.28125 88.277344 344.777344 L 88.277344 256.5 L 17.65625 256.5 L 17.65625 335.949219 C 17.65625 433.453125 96.699219 512.5 194.207031 512.5 L 256 512.5 C 353.507812 512.5 432.550781 433.453125 432.550781 335.949219 L 432.550781 256.5 L 361.929688 256.5 L 361.929688 344.773438 C 361.929688 403.28125 314.503906 450.707031 256 450.707031 Z M 256 450.707031 " style=" stroke:none;fill-rule:nonzero;fill:rgb(35.294118%,66.666667%,90.588235%);fill-opacity:1;" />
<path d="M 291.308594 344.777344 C 291.308594 374.027344 267.597656 397.742188 238.34375 397.742188 L 211.863281 397.742188 C 182.609375 397.742188 158.894531 374.027344 158.894531 344.777344 L 158.894531 256.5 L 88.277344 256.5 L 88.277344 344.773438 C 88.277344 403.28125 135.703125 450.707031 194.207031 450.707031 L 256 450.707031 C 314.503906 450.707031 361.929688 403.28125 361.929688 344.773438 L 361.929688 256.5 L 291.308594 256.5 Z M 291.308594 344.777344 " style=" stroke:none;fill-rule:nonzero;fill:rgb(47.058824%,72.54902%,92.156863%);fill-opacity:1;" />
<path d="M 17.65625 35.808594 L 88.277344 35.808594 L 88.277344 221.191406 L 17.65625 221.191406 Z M 17.65625 35.808594 " style=" stroke:none;fill-rule:nonzero;fill:rgb(35.294118%,66.666667%,90.588235%);fill-opacity:1;" />
<path d="M 88.277344 35.808594 L 158.894531 35.808594 L 158.894531 221.191406 L 88.277344 221.191406 Z M 88.277344 35.808594 " style=" stroke:none;fill-rule:nonzero;fill:rgb(47.058824%,72.54902%,92.156863%);fill-opacity:1;" />
<path d="M 476.6875 88.777344 L 476.6875 18.15625 L 308.964844 18.15625 C 299.214844 18.15625 291.308594 26.058594 291.308594 35.808594 L 291.308594 221.191406 L 361.929688 221.191406 L 361.929688 88.777344 Z M 476.6875 88.777344 " style=" stroke:none;fill-rule:nonzero;fill:rgb(47.058824%,72.54902%,92.156863%);fill-opacity:1;" />
<path d="M 361.929688 88.777344 L 361.929688 221.191406 L 432.550781 221.191406 L 432.550781 159.398438 L 476.6875 159.398438 L 476.6875 88.777344 Z M 361.929688 88.777344 " style=" stroke:none;fill-rule:nonzero;fill:rgb(35.294118%,66.666667%,90.588235%);fill-opacity:1;" />
</g>
</svg>