<svg xmlns="http://www.w3.org/2000/svg" height="511pt" version="1.1" viewBox="-44 1 511 511.99998" width="511pt">
<g id="surface1">
<path d="M 0.5 61.792969 L 0.5 132.414062 L 71.121094 132.414062 L 71.121094 61.792969 Z M 0.5 61.792969 " style=" stroke:none;fill-rule:nonzero;fill:rgb(10.196078%,43.529412%,69.019608%);fill-opacity:1;" />
<path d="M 53.464844 0 L 18.15625 0 L 0.5 61.792969 L 71.121094 61.792969 Z M 53.464844 0 " style=" stroke:none;fill-rule:nonzero;fill:rgb(11.764706%,50.588235%,80.784314%);fill-opacity:1;" />
<path d="M 18.15625 194.207031 L 53.464844 194.207031 L 71.121094 132.414062 L 0.5 132.414062 Z M 18.15625 194.207031 " style=" stroke:none;fill-rule:nonzero;fill:rgb(11.764706%,50.588235%,80.784314%);fill-opacity:1;" />
<path d="M 106.429688 185.378906 L 141.742188 185.378906 L 141.742188 8.828125 L 106.429688 8.828125 Z M 106.429688 185.378906 " style=" stroke:none;fill-rule:nonzero;fill:rgb(11.764706%,50.588235%,80.784314%);fill-opacity:1;" />
<path d="M 71.121094 79.449219 L 106.429688 79.449219 L 106.429688 114.757812 L 71.121094 114.757812 Z M 71.121094 79.449219 " style=" stroke:none;fill-rule:nonzero;fill:rgb(11.764706%,50.588235%,80.784314%);fill-opacity:1;" />
<path d="M 230.015625 273.65625 L 230.015625 308.964844 L 406.570312 308.964844 L 406.570312 273.65625 Z M 230.015625 273.65625 " style=" stroke:none;fill-rule:nonzero;fill:rgb(11.764706%,50.588235%,80.784314%);fill-opacity:1;" />
<path d="M 212.363281 308.964844 L 212.363281 344.277344 L 424.222656 344.277344 L 424.222656 308.964844 Z M 212.363281 308.964844 " style=" stroke:none;fill-rule:nonzero;fill:rgb(10.196078%,43.529412%,69.019608%);fill-opacity:1;" />
<path d="M 265.328125 97.105469 L 141.742188 97.105469 L 141.742188 167.722656 L 230.015625 167.722656 C 239.769531 167.722656 247.671875 175.628906 247.671875 185.378906 L 247.671875 273.65625 L 318.292969 273.65625 L 318.292969 150.070312 C 318.292969 120.816406 294.578125 97.105469 265.328125 97.105469 Z M 265.328125 97.105469 " style=" stroke:none;fill-rule:nonzero;fill:rgb(35.294118%,66.666667%,90.588235%);fill-opacity:1;" />
<path d="M 388.914062 132.414062 C 388.914062 73.910156 341.488281 26.484375 282.984375 26.484375 L 141.742188 26.484375 L 141.742188 97.101562 L 265.328125 97.101562 C 294.578125 97.101562 318.292969 120.816406 318.292969 150.070312 L 318.292969 273.65625 L 388.914062 273.65625 Z M 388.914062 132.414062 " style=" stroke:none;fill-rule:nonzero;fill:rgb(47.058824%,72.54902%,92.156863%);fill-opacity:1;" />
<path d="M 318.292969 344.277344 L 388.914062 344.277344 L 388.914062 512 L 318.292969 512 Z M 318.292969 344.277344 " style=" stroke:none;fill-rule:nonzero;fill:rgb(47.058824%,72.54902%,92.156863%);fill-opacity:1;" />
<path d="M 247.671875 344.277344 L 318.292969 344.277344 L 318.292969 512 L 247.671875 512 Z M 247.671875 344.277344 " style=" stroke:none;fill-rule:nonzero;fill:rgb(35.294118%,66.666667%,90.588235%);fill-opacity:1;" />
</g>
</svg>