<svg xmlns="http://www.w3.org/2000/svg" height="511pt" version="1.1" viewBox="-40 1 511 511.99998" width="511pt">
<g id="surface1">
<path d="M 194.707031 35.3125 L 194.707031 0 L 18.15625 0 L 18.15625 35.3125 Z M 194.707031 35.3125 " style=" stroke:none;fill-rule:nonzero;fill:rgb(11.764706%,50.588235%,80.784314%);fill-opacity:1;" />
<path d="M 406.570312 150.070312 L 431.550781 125.085938 L 306.730469 0.265625 L 281.746094 25.246094 Z M 406.570312 150.070312 " style=" stroke:none;fill-rule:nonzero;fill:rgb(10.196078%,43.529412%,69.019608%);fill-opacity:1;" />
<path d="M 18.15625 441.378906 L 18.15625 476.6875 L 194.707031 476.6875 L 194.707031 441.378906 Z M 18.15625 441.378906 " style=" stroke:none;fill-rule:nonzero;fill:rgb(11.764706%,50.588235%,80.784314%);fill-opacity:1;" />
<path d="M 0.5 476.6875 L 0.5 512 L 212.363281 512 L 212.363281 476.6875 Z M 0.5 476.6875 " style=" stroke:none;fill-rule:nonzero;fill:rgb(10.196078%,43.529412%,69.019608%);fill-opacity:1;" />
<path d="M 93.191406 339.863281 L 106.429688 326.621094 L 106.429688 35.3125 L 35.808594 35.3125 L 35.808594 441.378906 L 106.429688 441.378906 L 106.429688 326.621094 Z M 93.191406 339.863281 " style=" stroke:none;fill-rule:nonzero;fill:rgb(35.294118%,66.666667%,90.588235%);fill-opacity:1;" />
<path d="M 344.777344 88.277344 L 294.898438 38.398438 L 177.050781 156.160156 L 177.050781 35.3125 L 106.429688 35.3125 L 106.429688 326.621094 Z M 344.777344 88.277344 " style=" stroke:none;fill-rule:nonzero;fill:rgb(47.058824%,72.54902%,92.156863%);fill-opacity:1;" />
<path d="M 344.777344 88.277344 L 106.429688 326.621094 L 106.429688 441.378906 L 177.050781 441.378906 L 177.050781 363.148438 C 177.050781 358.46875 178.914062 353.976562 182.222656 350.667969 L 394.738281 138.238281 Z M 344.777344 88.277344 " style=" stroke:none;fill-rule:nonzero;fill:rgb(58.823529%,78.431373%,93.72549%);fill-opacity:1;" />
</g>
</svg>