<svg xmlns="http://www.w3.org/2000/svg" height="511.99924pt" version="1.1" viewBox="1 1 511.99924 511.99924" width="511.99924pt">
<g id="surface1">
<path d="M 17.65625 264.828125 L 17.65625 300.136719 L 194.207031 300.136719 L 194.207031 264.828125 Z M 17.65625 264.828125 " style=" stroke:none;fill-rule:nonzero;fill:rgb(11.764706%,50.588235%,80.784314%);fill-opacity:1;" />
<path d="M 0 300.136719 L 0 335.449219 L 211.863281 335.449219 L 211.863281 300.136719 Z M 0 300.136719 " style=" stroke:none;fill-rule:nonzero;fill:rgb(10.196078%,43.529412%,69.019608%);fill-opacity:1;" />
<path d="M 264.828125 17.65625 L 264.828125 194.207031 L 300.136719 194.207031 L 300.136719 17.65625 Z M 264.828125 17.65625 " style=" stroke:none;fill-rule:nonzero;fill:rgb(11.764706%,50.588235%,80.784314%);fill-opacity:1;" />
<path d="M 335.449219 0 L 300.136719 0 L 300.136719 211.863281 L 335.449219 211.863281 Z M 335.449219 0 " style=" stroke:none;fill-rule:nonzero;fill:rgb(10.196078%,43.529412%,69.019608%);fill-opacity:1;" />
<path d="M 335.449219 35.3125 L 512 35.3125 L 512 105.929688 L 335.449219 105.929688 Z M 335.449219 35.3125 " style=" stroke:none;fill-rule:nonzero;fill:rgb(35.294118%,66.666667%,90.588235%);fill-opacity:1;" />
<path d="M 335.449219 105.929688 L 512 105.929688 L 512 176.550781 L 335.449219 176.550781 Z M 335.449219 105.929688 " style=" stroke:none;fill-rule:nonzero;fill:rgb(47.058824%,72.54902%,92.156863%);fill-opacity:1;" />
<path d="M 105.929688 158.898438 L 105.929688 264.828125 L 176.550781 264.828125 L 176.550781 194.207031 C 176.550781 184.457031 184.457031 176.550781 194.207031 176.550781 L 264.828125 176.550781 L 264.828125 105.933594 L 158.898438 105.933594 C 129.644531 105.929688 105.929688 129.644531 105.929688 158.898438 Z M 105.929688 158.898438 " style=" stroke:none;fill-rule:nonzero;fill:rgb(47.058824%,72.54902%,92.156863%);fill-opacity:1;" />
<path d="M 141.242188 35.3125 C 82.738281 35.3125 35.3125 82.738281 35.3125 141.242188 L 35.3125 264.828125 L 105.929688 264.828125 L 105.929688 158.898438 C 105.929688 129.644531 129.644531 105.929688 158.898438 105.929688 L 264.828125 105.929688 L 264.828125 35.3125 Z M 141.242188 35.3125 " style=" stroke:none;fill-rule:nonzero;fill:rgb(35.294118%,66.666667%,90.588235%);fill-opacity:1;" />
<path d="M 105.929688 335.449219 L 176.550781 335.449219 L 176.550781 512 L 105.929688 512 Z M 105.929688 335.449219 " style=" stroke:none;fill-rule:nonzero;fill:rgb(47.058824%,72.54902%,92.156863%);fill-opacity:1;" />
<path d="M 35.3125 335.449219 L 105.929688 335.449219 L 105.929688 512 L 35.3125 512 Z M 35.3125 335.449219 " style=" stroke:none;fill-rule:nonzero;fill:rgb(35.294118%,66.666667%,90.588235%);fill-opacity:1;" />
</g>
</svg>