<svg xmlns="http://www.w3.org/2000/svg" height="511.99923pt" version="1.1" viewBox="1 1 511.99923 511.99923" width="511.99923pt">
<g id="surface1">
<path d="M 344.277344 141.242188 L 344.277344 105.929688 L 167.722656 105.929688 L 167.722656 141.242188 Z M 344.277344 141.242188 " style=" stroke:none;fill-rule:nonzero;fill:rgb(11.764706%,50.588235%,80.784314%);fill-opacity:1;" />
<path d="M 370.757812 167.722656 L 370.757812 344.277344 L 406.066406 344.277344 L 406.066406 167.722656 Z M 370.757812 167.722656 " style=" stroke:none;fill-rule:nonzero;fill:rgb(11.764706%,50.588235%,80.784314%);fill-opacity:1;" />
<path d="M 361.929688 105.929688 L 361.929688 70.621094 L 150.070312 70.621094 L 150.070312 105.929688 Z M 361.929688 105.929688 " style=" stroke:none;fill-rule:nonzero;fill:rgb(10.196078%,43.529412%,69.019608%);fill-opacity:1;" />
<path d="M 167.722656 370.757812 L 167.722656 406.066406 L 344.277344 406.066406 L 344.277344 370.757812 Z M 167.722656 370.757812 " style=" stroke:none;fill-rule:nonzero;fill:rgb(11.764706%,50.588235%,80.784314%);fill-opacity:1;" />
<path d="M 150.070312 406.066406 L 150.070312 441.378906 L 361.929688 441.378906 L 361.929688 406.066406 Z M 150.070312 406.066406 " style=" stroke:none;fill-rule:nonzero;fill:rgb(10.196078%,43.529412%,69.019608%);fill-opacity:1;" />
<path d="M 441.378906 150.070312 L 406.066406 150.070312 L 406.066406 361.929688 L 441.378906 361.929688 Z M 441.378906 150.070312 " style=" stroke:none;fill-rule:nonzero;fill:rgb(10.196078%,43.529412%,69.019608%);fill-opacity:1;" />
<path d="M 141.242188 167.722656 L 105.929688 167.722656 L 105.929688 344.277344 L 141.242188 344.277344 Z M 141.242188 167.722656 " style=" stroke:none;fill-rule:nonzero;fill:rgb(11.764706%,50.588235%,80.784314%);fill-opacity:1;" />
<path d="M 105.929688 150.070312 L 70.621094 150.070312 L 70.621094 361.929688 L 105.929688 361.929688 Z M 105.929688 150.070312 " style=" stroke:none;fill-rule:nonzero;fill:rgb(10.196078%,43.529412%,69.019608%);fill-opacity:1;" />
<path d="M 326.621094 185.378906 L 326.621094 141.242188 L 256 141.242188 L 256 247.171875 L 370.757812 247.171875 L 370.757812 185.378906 Z M 326.621094 185.378906 " style=" stroke:none;fill-rule:nonzero;fill:rgb(58.823529%,78.431373%,93.72549%);fill-opacity:1;" />
<path d="M 256 370.757812 L 326.621094 370.757812 L 326.621094 326.621094 L 370.757812 326.621094 L 370.757812 247.171875 L 256 247.171875 Z M 256 370.757812 " style=" stroke:none;fill-rule:nonzero;fill:rgb(47.058824%,72.54902%,92.156863%);fill-opacity:1;" />
<path d="M 141.242188 247.171875 L 141.242188 326.621094 L 185.378906 326.621094 L 185.378906 370.757812 L 256 370.757812 L 256 247.171875 Z M 141.242188 247.171875 " style=" stroke:none;fill-rule:nonzero;fill:rgb(35.294118%,66.666667%,90.588235%);fill-opacity:1;" />
<path d="M 256 141.242188 L 185.378906 141.242188 L 185.378906 185.378906 L 141.242188 185.378906 L 141.242188 247.171875 L 256 247.171875 Z M 256 141.242188 " style=" stroke:none;fill-rule:nonzero;fill:rgb(47.058824%,72.54902%,92.156863%);fill-opacity:1;" />
<path d="M 256 0 L 326.621094 0 L 326.621094 70.621094 L 256 70.621094 Z M 256 0 " style=" stroke:none;fill-rule:nonzero;fill:rgb(58.823529%,78.431373%,93.72549%);fill-opacity:1;" />
<path d="M 185.378906 0 L 256 0 L 256 70.621094 L 185.378906 70.621094 Z M 185.378906 0 " style=" stroke:none;fill-rule:nonzero;fill:rgb(47.058824%,72.54902%,92.156863%);fill-opacity:1;" />
<path d="M 441.378906 185.378906 L 512 185.378906 L 512 247.171875 L 441.378906 247.171875 Z M 441.378906 185.378906 " style=" stroke:none;fill-rule:nonzero;fill:rgb(58.823529%,78.431373%,93.72549%);fill-opacity:1;" />
<path d="M 441.378906 247.171875 L 512 247.171875 L 512 326.621094 L 441.378906 326.621094 Z M 441.378906 247.171875 " style=" stroke:none;fill-rule:nonzero;fill:rgb(47.058824%,72.54902%,92.156863%);fill-opacity:1;" />
<path d="M 185.378906 441.378906 L 256 441.378906 L 256 512 L 185.378906 512 Z M 185.378906 441.378906 " style=" stroke:none;fill-rule:nonzero;fill:rgb(35.294118%,66.666667%,90.588235%);fill-opacity:1;" />
<path d="M 256 441.378906 L 326.621094 441.378906 L 326.621094 512 L 256 512 Z M 256 441.378906 " style=" stroke:none;fill-rule:nonzero;fill:rgb(47.058824%,72.54902%,92.156863%);fill-opacity:1;" />
<path d="M 0 247.171875 L 70.621094 247.171875 L 70.621094 326.621094 L 0 326.621094 Z M 0 247.171875 " style=" stroke:none;fill-rule:nonzero;fill:rgb(35.294118%,66.666667%,90.588235%);fill-opacity:1;" />
<path d="M 0 185.378906 L 70.621094 185.378906 L 70.621094 247.171875 L 0 247.171875 Z M 0 185.378906 " style=" stroke:none;fill-rule:nonzero;fill:rgb(47.058824%,72.54902%,92.156863%);fill-opacity:1;" />
</g>
</svg>