<svg xmlns="http://www.w3.org/2000/svg" height="511pt" version="1.1" viewBox="1 -52 511.99998 511" width="511pt">
<g id="surface1">
<path d="M 154.199219 318.292969 L 317.792969 318.292969 L 317.792969 247.671875 L 0 247.671875 L 0 353.601562 L 61.792969 353.601562 C 61.792969 324.351562 85.507812 300.636719 114.757812 300.636719 C 144.011719 300.636719 167.726562 324.351562 167.726562 353.601562 L 317.792969 353.601562 L 317.792969 318.292969 Z M 154.199219 318.292969 " style=" stroke:none;fill-rule:nonzero;fill:rgb(67.058824%,13.72549%,0%);fill-opacity:1;" />
<path d="M 317.792969 88.777344 L 317.792969 0.5 L 0 0.5 L 0 247.671875 L 317.792969 247.671875 Z M 215.074219 112.042969 C 208.050781 112.050781 201.3125 109.257812 196.351562 104.285156 L 121.441406 179.195312 C 131.78125 189.539062 131.777344 206.308594 121.433594 216.648438 C 116.46875 221.613281 109.738281 224.402344 102.71875 224.402344 C 117.34375 224.402344 129.199219 212.546875 129.199219 197.921875 C 129.199219 183.292969 117.34375 171.4375 102.71875 171.4375 C 88.089844 171.4375 76.234375 183.292969 76.234375 197.921875 C 76.238281 183.292969 88.097656 171.441406 102.722656 171.441406 C 109.742188 171.445312 116.476562 174.234375 121.441406 179.195312 L 196.351562 104.285156 C 186.011719 93.941406 186.015625 77.171875 196.359375 66.832031 C 201.324219 61.871094 208.054688 59.082031 215.074219 59.078125 C 200.449219 59.078125 188.59375 70.9375 188.59375 85.5625 C 188.59375 100.1875 200.449219 112.042969 215.074219 112.042969 C 229.703125 112.042969 241.558594 100.1875 241.558594 85.5625 C 241.558594 100.1875 229.699219 112.042969 215.074219 112.042969 Z M 215.074219 112.042969 " style=" stroke:none;fill-rule:nonzero;fill:rgb(80.392157%,16.470588%,0%);fill-opacity:1;" />
<path d="M 317.792969 88.777344 L 370.757812 88.777344 L 370.757812 247.671875 L 317.792969 247.671875 Z M 317.792969 88.777344 " style=" stroke:none;fill-rule:nonzero;fill:rgb(50.196078%,50.980392%,52.156863%);fill-opacity:1;" />
<path d="M 370.757812 247.671875 L 317.792969 247.671875 L 317.792969 353.601562 L 361.929688 353.601562 C 361.929688 324.351562 385.644531 300.636719 414.894531 300.636719 C 444.148438 300.636719 467.863281 324.351562 467.863281 353.601562 L 512 353.601562 L 512 247.671875 Z M 370.757812 247.671875 " style=" stroke:none;fill-rule:nonzero;fill:rgb(42.745098%,43.137255%,44.313725%);fill-opacity:1;" />
<path d="M 97.105469 318.292969 C 97.105469 323.167969 93.152344 327.121094 88.277344 327.121094 L 0 327.121094 L 0 309.464844 L 88.277344 309.464844 C 93.152344 309.464844 97.105469 313.417969 97.105469 318.292969 Z M 97.105469 318.292969 " style=" stroke:none;fill-rule:nonzero;fill:rgb(77.647059%,77.254902%,79.215686%);fill-opacity:1;" />
<path d="M 317.792969 309.464844 L 317.792969 327.121094 L 136.5625 327.121094 C 131.6875 327.121094 127.734375 323.167969 127.734375 318.292969 C 127.734375 313.417969 131.6875 309.464844 136.5625 309.464844 Z M 317.792969 309.464844 " style=" stroke:none;fill-rule:nonzero;fill:rgb(77.647059%,77.254902%,79.215686%);fill-opacity:1;" />
<path d="M 114.757812 300.636719 C 85.507812 300.636719 61.792969 324.351562 61.792969 353.601562 C 61.792969 382.855469 85.507812 406.570312 114.757812 406.570312 C 144.011719 406.570312 167.722656 382.855469 167.722656 353.601562 C 167.722656 324.351562 144.011719 300.636719 114.757812 300.636719 Z M 114.757812 371.257812 C 105.007812 371.257812 97.101562 363.351562 97.101562 353.601562 C 97.101562 343.851562 105.007812 335.945312 114.757812 335.945312 C 124.507812 335.945312 132.414062 343.851562 132.414062 353.601562 C 132.414062 363.351562 124.507812 371.257812 114.757812 371.257812 Z M 114.757812 371.257812 " style=" stroke:none;fill-rule:nonzero;fill:rgb(25.490196%,25.098039%,25.882353%);fill-opacity:1;" />
<path d="M 406.066406 88.777344 C 464.574219 88.777344 512 136.203125 512 194.707031 C 512 136.203125 464.574219 88.777344 406.066406 88.777344 Z M 406.066406 88.777344 " style=" stroke:none;fill-rule:nonzero;fill:rgb(10.196078%,43.529412%,69.019608%);fill-opacity:1;" />
<path d="M 414.894531 300.636719 C 385.644531 300.636719 361.929688 324.351562 361.929688 353.601562 C 361.929688 382.855469 385.644531 406.570312 414.894531 406.570312 C 444.148438 406.570312 467.863281 382.855469 467.863281 353.601562 C 467.863281 324.351562 444.148438 300.636719 414.894531 300.636719 Z M 414.894531 371.257812 C 405.144531 371.257812 397.242188 363.351562 397.242188 353.601562 C 397.242188 343.851562 405.144531 335.945312 414.894531 335.945312 C 424.648438 335.945312 432.550781 343.851562 432.550781 353.601562 C 432.550781 363.351562 424.648438 371.257812 414.894531 371.257812 Z M 414.894531 371.257812 " style=" stroke:none;fill-rule:nonzero;fill:rgb(25.490196%,25.098039%,25.882353%);fill-opacity:1;" />
<path d="M 406.066406 88.777344 L 370.757812 88.777344 L 370.757812 247.671875 L 512 247.671875 L 512 194.707031 C 512 136.203125 464.574219 88.777344 406.066406 88.777344 Z M 406.066406 88.777344 " style=" stroke:none;fill-rule:nonzero;fill:rgb(90.196078%,90.588235%,90.980392%);fill-opacity:1;" />
<path d="M 432.550781 353.601562 C 432.550781 363.351562 424.648438 371.257812 414.894531 371.257812 C 405.144531 371.257812 397.242188 363.351562 397.242188 353.601562 C 397.242188 343.851562 405.144531 335.945312 414.894531 335.945312 C 424.648438 335.945312 432.550781 343.851562 432.550781 353.601562 Z M 432.550781 353.601562 " style=" stroke:none;fill-rule:nonzero;fill:rgb(34.509804%,34.901961%,35.686275%);fill-opacity:1;" />
<path d="M 132.414062 353.601562 C 132.414062 363.351562 124.507812 371.257812 114.757812 371.257812 C 105.007812 371.257812 97.101562 363.351562 97.101562 353.601562 C 97.101562 343.851562 105.007812 335.945312 114.757812 335.945312 C 124.507812 335.945312 132.414062 343.851562 132.414062 353.601562 Z M 132.414062 353.601562 " style=" stroke:none;fill-rule:nonzero;fill:rgb(34.509804%,34.901961%,35.686275%);fill-opacity:1;" />
<path d="M 215.074219 120.871094 C 195.574219 120.871094 179.765625 105.0625 179.765625 85.5625 C 179.765625 66.058594 195.574219 50.25 215.074219 50.25 C 219.949219 50.25 223.902344 54.203125 223.902344 59.078125 C 223.902344 63.953125 219.949219 67.90625 215.074219 67.90625 C 205.324219 67.90625 197.421875 75.808594 197.421875 85.5625 C 197.421875 95.3125 205.324219 103.214844 215.074219 103.214844 C 224.828125 103.214844 232.730469 95.3125 232.730469 85.5625 C 232.730469 80.6875 236.683594 76.734375 241.558594 76.734375 C 246.433594 76.734375 250.386719 80.6875 250.386719 85.5625 C 250.386719 105.0625 234.578125 120.871094 215.074219 120.871094 Z M 215.074219 120.871094 " style=" stroke:none;fill-rule:nonzero;fill:rgb(94.509804%,94.901961%,94.901961%);fill-opacity:1;" />
<path d="M 102.71875 233.230469 C 97.84375 233.230469 93.890625 229.277344 93.890625 224.402344 C 93.890625 219.527344 97.84375 215.574219 102.71875 215.574219 C 112.46875 215.574219 120.375 207.671875 120.375 197.921875 C 120.375 188.167969 112.46875 180.265625 102.71875 180.265625 C 92.96875 180.265625 85.0625 188.167969 85.0625 197.921875 C 85.0625 202.796875 81.109375 206.746094 76.234375 206.746094 C 71.359375 206.746094 67.410156 202.792969 67.410156 197.921875 C 67.410156 178.417969 83.21875 162.609375 102.71875 162.609375 C 122.222656 162.609375 138.03125 178.417969 138.03125 197.921875 C 138.027344 217.421875 122.21875 233.230469 102.71875 233.230469 Z M 102.71875 233.230469 " style=" stroke:none;fill-rule:nonzero;fill:rgb(94.509804%,94.901961%,94.901961%);fill-opacity:1;" />
<path d="M 121.441406 188.015625 C 116.566406 188.015625 112.613281 184.0625 112.613281 179.183594 C 112.617188 176.84375 113.546875 174.601562 115.199219 172.945312 L 190.109375 98.054688 C 193.5 94.546875 199.085938 94.449219 202.59375 97.835938 C 206.101562 101.222656 206.195312 106.8125 202.808594 110.316406 C 202.738281 110.390625 202.667969 110.464844 202.59375 110.535156 L 127.683594 185.429688 C 126.03125 187.089844 123.785156 188.023438 121.441406 188.015625 Z M 121.441406 188.015625 " style=" stroke:none;fill-rule:nonzero;fill:rgb(94.509804%,94.901961%,94.901961%);fill-opacity:1;" />
<path d="M 414.894531 380.085938 C 400.269531 380.085938 388.414062 368.230469 388.414062 353.601562 C 388.414062 338.976562 400.269531 327.121094 414.894531 327.121094 C 429.523438 327.121094 441.378906 338.976562 441.378906 353.601562 C 441.378906 368.230469 429.523438 380.085938 414.894531 380.085938 Z M 414.894531 344.773438 C 410.019531 344.773438 406.070312 348.726562 406.070312 353.601562 C 406.070312 358.476562 410.023438 362.429688 414.894531 362.429688 C 419.769531 362.429688 423.722656 358.476562 423.722656 353.601562 C 423.722656 348.726562 419.773438 344.773438 414.894531 344.773438 Z M 414.894531 344.773438 " style=" stroke:none;fill-rule:nonzero;fill:rgb(34.509804%,34.901961%,35.686275%);fill-opacity:1;" />
<path d="M 114.757812 380.085938 C 100.132812 380.085938 88.277344 368.230469 88.277344 353.601562 C 88.277344 338.976562 100.132812 327.121094 114.757812 327.121094 C 129.382812 327.121094 141.242188 338.976562 141.242188 353.601562 C 141.242188 368.230469 129.382812 380.085938 114.757812 380.085938 Z M 114.757812 344.773438 C 109.882812 344.773438 105.929688 348.726562 105.929688 353.601562 C 105.929688 358.476562 109.882812 362.429688 114.757812 362.429688 C 119.632812 362.429688 123.585938 358.476562 123.585938 353.601562 C 123.585938 348.726562 119.632812 344.773438 114.757812 344.773438 Z M 114.757812 344.773438 " style=" stroke:none;fill-rule:nonzero;fill:rgb(34.509804%,34.901961%,35.686275%);fill-opacity:1;" />
</g>
</svg>