<svg xmlns="http://www.w3.org/2000/svg" height="511pt" version="1.1" viewBox="-114 1 511 511.99998" width="511pt">
<g id="surface1">
<path d="M 0.5 476.6875 L 0.5 512 L 282.984375 512 L 282.984375 476.6875 Z M 0.5 476.6875 " style=" stroke:none;fill-rule:nonzero;fill:rgb(10.196078%,43.529412%,69.019608%);fill-opacity:1;" />
<path d="M 106.433594 273.65625 L 106.433594 340.566406 C 129.476562 333.742188 154.007812 333.742188 177.050781 340.566406 L 177.050781 273.65625 Z M 106.433594 273.65625 " style=" stroke:none;fill-rule:nonzero;fill:rgb(10.196078%,43.529412%,69.019608%);fill-opacity:1;" />
<path d="M 116.503906 374.414062 C 85.378906 383.847656 61.890625 409.535156 55.273438 441.378906 C 61.890625 409.535156 85.378906 383.847656 116.503906 374.414062 C 124.695312 371.976562 133.195312 370.746094 141.742188 370.757812 L 141.742188 335.449219 C 73.554688 335.378906 18.222656 390.601562 18.15625 458.785156 C 18.15625 458.871094 18.15625 458.953125 18.15625 459.035156 L 18.15625 476.6875 L 141.742188 476.6875 L 141.742188 370.757812 C 133.195312 370.746094 124.695312 371.976562 116.503906 374.414062 Z M 116.503906 374.414062 " style=" stroke:none;fill-rule:nonzero;fill:rgb(35.294118%,66.666667%,90.588235%);fill-opacity:1;" />
<path d="M 229.132812 371.640625 C 214.59375 357.15625 196.703125 346.484375 177.050781 340.570312 C 165.59375 337.152344 153.699219 335.429688 141.742188 335.449219 L 141.742188 370.757812 C 150.269531 370.746094 158.757812 371.96875 166.933594 374.394531 C 158.757812 371.96875 150.269531 370.746094 141.742188 370.757812 L 141.742188 476.691406 L 265.328125 476.691406 L 265.328125 459.035156 C 265.335938 426.253906 252.316406 394.816406 229.132812 371.640625 Z M 229.132812 371.640625 " style=" stroke:none;fill-rule:nonzero;fill:rgb(47.058824%,72.54902%,92.156863%);fill-opacity:1;" />
<path d="M 124.085938 0 L 141.742188 0 L 141.742188 273.65625 L 124.085938 273.65625 Z M 124.085938 0 " style=" stroke:none;fill-rule:nonzero;fill:rgb(93.333333%,78.823529%,66.27451%);fill-opacity:1;" />
<path d="M 141.742188 0 L 159.398438 0 L 159.398438 273.65625 L 141.742188 273.65625 Z M 141.742188 0 " style=" stroke:none;fill-rule:nonzero;fill:rgb(94.509804%,83.137255%,72.941176%);fill-opacity:1;" />
<path d="M 55.285156 450.207031 C 54.691406 450.203125 54.101562 450.140625 53.519531 450.019531 C 48.746094 449.03125 45.679688 444.359375 46.667969 439.585938 C 53.824219 404.503906 79.707031 376.207031 114.015625 365.957031 C 132.125 360.628906 151.386719 360.628906 169.496094 365.957031 C 174.183594 367.296875 176.898438 372.179688 175.558594 376.867188 C 174.21875 381.558594 169.335938 384.269531 164.648438 382.933594 C 164.578125 382.914062 164.507812 382.890625 164.4375 382.871094 C 122.382812 370.347656 78.140625 394.289062 65.621094 436.339844 C 64.953125 438.582031 64.386719 440.851562 63.917969 443.144531 C 63.078125 447.25 59.472656 450.199219 55.285156 450.207031 Z M 55.285156 450.207031 " style=" stroke:none;fill-rule:nonzero;fill:rgb(94.509804%,94.901961%,94.901961%);fill-opacity:1;" />
</g>
</svg>