<svg xmlns="http://www.w3.org/2000/svg" height="511pt" version="1.1" viewBox="-79 1 511 511.99998" width="511pt">
<g id="surface1">
<path d="M 106.429688 450.207031 L 106.429688 512 L 247.671875 512 L 247.671875 450.207031 C 203.535156 473.746094 150.570312 473.746094 106.429688 450.207031 Z M 106.429688 450.207031 " style=" stroke:none;fill-rule:nonzero;fill:rgb(71.764706%,64.313725%,58.431373%);fill-opacity:1;" />
<path d="M 90.101562 300.136719 L 26.984375 300.136719 C 17.246094 300.167969 9.355469 308.054688 9.328125 317.792969 L 9.328125 335.449219 L 344.773438 335.449219 L 344.773438 317.792969 C 344.746094 308.054688 336.859375 300.167969 327.121094 300.136719 Z M 90.101562 300.136719 " style=" stroke:none;fill-rule:nonzero;fill:rgb(11.764706%,50.588235%,80.784314%);fill-opacity:1;" />
<path d="M 0.5 35.3125 L 353.601562 35.3125 L 353.601562 0 L 0.5 0 Z M 0.5 35.3125 " style=" stroke:none;fill-rule:nonzero;fill:rgb(10.196078%,43.529412%,69.019608%);fill-opacity:1;" />
<path d="M 177.050781 61.792969 C 103.960938 61.792969 44.636719 140.800781 44.636719 238.34375 C 44.636719 241.257812 44.726562 244.257812 44.8125 247.171875 C 45.453125 265.089844 48.210938 282.867188 53.023438 300.136719 L 90.101562 300.136719 C 84.257812 283.050781 80.898438 265.214844 80.125 247.171875 C 80.035156 244.257812 79.949219 241.34375 79.949219 238.34375 C 79.949219 161.808594 124.4375 97.101562 177.050781 97.101562 C 229.664062 97.101562 274.15625 161.808594 274.15625 238.34375 C 274.15625 241.34375 274.066406 244.257812 273.980469 247.171875 C 273.207031 265.214844 269.847656 283.050781 264.003906 300.136719 L 301.078125 300.136719 C 305.894531 282.867188 308.648438 265.089844 309.289062 247.171875 C 309.378906 244.257812 309.464844 241.257812 309.464844 238.34375 C 309.464844 140.800781 250.144531 61.792969 177.050781 61.792969 Z M 177.050781 61.792969 " style=" stroke:none;fill-rule:nonzero;fill:rgb(93.333333%,78.823529%,66.27451%);fill-opacity:1;" />
<path d="M 28.007812 335.449219 C 36.953125 410.976562 100.992188 467.871094 177.050781 467.863281 L 177.050781 335.449219 Z M 28.007812 335.449219 " style=" stroke:none;fill-rule:nonzero;fill:rgb(95.686275%,85.882353%,77.647059%);fill-opacity:1;" />
<path d="M 247.671875 450.207031 C 291.035156 427.109375 320.332031 384.238281 326.097656 335.449219 L 177.050781 335.449219 L 177.050781 467.863281 C 201.691406 467.925781 225.960938 461.859375 247.671875 450.207031 Z M 247.671875 450.207031 " style=" stroke:none;fill-rule:nonzero;fill:rgb(96.470588%,88.627451%,81.960784%);fill-opacity:1;" />
<path d="M 335.949219 247.171875 L 335.949219 35.3125 L 177.050781 35.3125 L 177.050781 61.792969 C 250.144531 61.792969 309.464844 140.800781 309.464844 238.34375 C 309.464844 241.257812 309.375 244.257812 309.289062 247.171875 Z M 335.949219 247.171875 " style=" stroke:none;fill-rule:nonzero;fill:rgb(47.058824%,72.54902%,92.156863%);fill-opacity:1;" />
<path d="M 18.15625 35.3125 L 18.15625 247.171875 L 44.8125 247.171875 C 44.726562 244.257812 44.636719 241.257812 44.636719 238.34375 C 44.636719 140.800781 103.960938 61.792969 177.050781 61.792969 L 177.050781 35.3125 Z M 18.15625 35.3125 " style=" stroke:none;fill-rule:nonzero;fill:rgb(35.294118%,66.666667%,90.588235%);fill-opacity:1;" />
<path d="M 79.949219 238.34375 C 79.949219 241.34375 80.035156 244.257812 80.125 247.171875 C 80.898438 265.214844 84.257812 283.050781 90.101562 300.136719 L 177.050781 300.136719 L 177.050781 97.101562 C 124.4375 97.105469 79.949219 161.808594 79.949219 238.34375 Z M 79.949219 238.34375 " style=" stroke:none;fill-rule:nonzero;fill:rgb(95.686275%,85.882353%,77.647059%);fill-opacity:1;" />
<path d="M 264.003906 300.136719 C 269.847656 283.050781 273.207031 265.214844 273.976562 247.171875 C 274.066406 244.257812 274.15625 241.34375 274.15625 238.34375 C 274.15625 161.808594 229.664062 97.101562 177.050781 97.101562 L 177.050781 300.136719 Z M 264.003906 300.136719 " style=" stroke:none;fill-rule:nonzero;fill:rgb(96.470588%,88.627451%,81.960784%);fill-opacity:1;" />
</g>
</svg>