<svg xmlns="http://www.w3.org/2000/svg" height="511pt" version="1.1" viewBox="-79 1 511 511.99998" width="511pt">
<g id="surface1">
<path d="M 106.429688 247.171875 L 247.671875 247.171875 L 247.671875 282.484375 L 106.429688 282.484375 Z M 106.429688 247.171875 " style=" stroke:none;fill-rule:nonzero;fill:rgb(72.54902%,66.27451%,60.784314%);fill-opacity:1;" />
<path d="M 106.429688 450.207031 L 106.429688 512 L 247.671875 512 L 247.671875 450.207031 C 203.535156 473.746094 150.570312 473.746094 106.429688 450.207031 Z M 106.429688 450.207031 " style=" stroke:none;fill-rule:nonzero;fill:rgb(72.54902%,66.27451%,60.784314%);fill-opacity:1;" />
<path d="M 26.984375 282.484375 C 17.230469 282.484375 9.328125 290.386719 9.328125 300.136719 L 9.328125 317.792969 L 344.773438 317.792969 L 344.773438 300.136719 C 344.773438 290.386719 336.871094 282.484375 327.121094 282.484375 Z M 26.984375 282.484375 " style=" stroke:none;fill-rule:nonzero;fill:rgb(11.764706%,50.588235%,80.784314%);fill-opacity:1;" />
<path d="M 0.5 35.3125 L 353.601562 35.3125 L 353.601562 0 L 0.5 0 Z M 0.5 35.3125 " style=" stroke:none;fill-rule:nonzero;fill:rgb(10.196078%,43.529412%,69.019608%);fill-opacity:1;" />
<path d="M 18.15625 247.171875 L 335.949219 247.171875 L 335.949219 211.949219 L 18.15625 211.949219 Z M 18.15625 247.171875 " style=" stroke:none;fill-rule:nonzero;fill:rgb(10.196078%,43.529412%,69.019608%);fill-opacity:1;" />
<path d="M 79.949219 79.449219 C 79.949219 89.199219 72.042969 97.105469 62.292969 97.105469 C 52.542969 97.105469 44.636719 89.199219 44.636719 79.449219 C 44.636719 69.699219 52.542969 61.792969 62.292969 61.792969 C 72.042969 61.792969 79.949219 69.699219 79.949219 79.449219 Z M 79.949219 79.449219 " style=" stroke:none;fill-rule:nonzero;fill:rgb(35.294118%,66.666667%,90.588235%);fill-opacity:1;" />
<path d="M 106.429688 450.207031 C 128.140625 461.859375 152.410156 467.925781 177.050781 467.863281 L 177.050781 317.792969 L 26.984375 317.792969 C 26.9375 373.226562 57.496094 424.160156 106.429688 450.207031 Z M 106.429688 450.207031 " style=" stroke:none;fill-rule:nonzero;fill:rgb(96.470588%,88.235294%,81.176471%);fill-opacity:1;" />
<path d="M 247.671875 450.207031 C 296.605469 424.160156 327.164062 373.226562 327.121094 317.792969 L 177.050781 317.792969 L 177.050781 467.863281 C 201.691406 467.925781 225.960938 461.859375 247.671875 450.207031 Z M 247.671875 450.207031 " style=" stroke:none;fill-rule:nonzero;fill:rgb(97.254902%,90.588235%,85.098039%);fill-opacity:1;" />
<path d="M 177.050781 35.3125 L 335.949219 35.3125 L 335.949219 211.949219 L 177.050781 211.949219 Z M 177.050781 35.3125 " style=" stroke:none;fill-rule:nonzero;fill:rgb(47.058824%,72.54902%,92.156863%);fill-opacity:1;" />
<path d="M 18.15625 35.3125 L 18.15625 211.949219 L 177.050781 211.949219 L 177.050781 35.3125 Z M 62.292969 97.105469 C 52.542969 97.105469 44.636719 89.199219 44.636719 79.449219 C 44.636719 69.699219 52.542969 61.792969 62.292969 61.792969 C 72.042969 61.792969 79.949219 69.699219 79.949219 79.449219 C 79.949219 89.199219 72.042969 97.105469 62.292969 97.105469 Z M 62.292969 97.105469 " style=" stroke:none;fill-rule:nonzero;fill:rgb(35.294118%,66.666667%,90.588235%);fill-opacity:1;" />
<path d="M 62.292969 105.929688 C 47.667969 105.929688 35.808594 94.074219 35.808594 79.449219 C 35.808594 64.824219 47.667969 52.964844 62.292969 52.964844 C 76.917969 52.964844 88.777344 64.824219 88.777344 79.449219 C 88.777344 94.074219 76.917969 105.929688 62.292969 105.929688 Z M 62.292969 70.621094 C 57.417969 70.621094 53.464844 74.574219 53.464844 79.449219 C 53.464844 84.324219 57.417969 88.273438 62.292969 88.273438 C 67.167969 88.273438 71.121094 84.324219 71.121094 79.449219 C 71.121094 74.574219 67.167969 70.621094 62.292969 70.621094 Z M 62.292969 70.621094 " style=" stroke:none;fill-rule:nonzero;fill:rgb(10.196078%,43.529412%,69.019608%);fill-opacity:1;" />
<path d="M 115.257812 88.277344 L 79.949219 88.277344 C 75.070312 88.277344 71.121094 84.324219 71.121094 79.449219 C 71.121094 74.574219 75.074219 70.621094 79.949219 70.621094 L 115.257812 70.621094 C 120.132812 70.621094 124.085938 74.574219 124.085938 79.449219 C 124.085938 84.324219 120.132812 88.277344 115.257812 88.277344 Z M 115.257812 88.277344 " style=" stroke:none;fill-rule:nonzero;fill:rgb(10.196078%,43.529412%,69.019608%);fill-opacity:1;" />
</g>
</svg>