<svg xmlns="http://www.w3.org/2000/svg" height="511pt" version="1.1" viewBox="1 1 511.99998 511" width="511pt">
<g id="surface1">
<path d="M 132.414062 256.5 L 379.585938 256.5 L 379.585938 309.464844 L 132.414062 309.464844 Z M 132.414062 256.5 " style=" stroke:none;fill-rule:nonzero;fill:rgb(10.196078%,43.529412%,69.019608%);fill-opacity:1;" />
<path d="M 167.722656 35.808594 L 344.277344 35.808594 L 344.277344 106.429688 L 379.585938 106.429688 L 379.585938 0.5 L 132.414062 0.5 L 132.414062 106.429688 L 167.722656 106.429688 Z M 167.722656 35.808594 " style=" stroke:none;fill-rule:nonzero;fill:rgb(10.196078%,43.529412%,69.019608%);fill-opacity:1;" />
<path d="M 79.449219 309.464844 L 132.414062 309.464844 L 132.414062 335.949219 L 79.449219 335.949219 Z M 79.449219 309.464844 " style=" stroke:none;fill-rule:nonzero;fill:rgb(35.294118%,66.666667%,90.588235%);fill-opacity:1;" />
<path d="M 132.414062 309.464844 L 132.414062 230.015625 L 79.449219 230.015625 L 79.449219 309.464844 Z M 132.414062 309.464844 " style=" stroke:none;fill-rule:nonzero;fill:rgb(11.764706%,50.588235%,80.784314%);fill-opacity:1;" />
<path d="M 432.550781 309.464844 L 432.550781 230.015625 L 379.585938 230.015625 L 379.585938 309.464844 Z M 432.550781 309.464844 " style=" stroke:none;fill-rule:nonzero;fill:rgb(11.764706%,50.588235%,80.784314%);fill-opacity:1;" />
<path d="M 379.585938 309.464844 L 432.550781 309.464844 L 432.550781 335.949219 L 379.585938 335.949219 Z M 379.585938 309.464844 " style=" stroke:none;fill-rule:nonzero;fill:rgb(35.294118%,66.666667%,90.588235%);fill-opacity:1;" />
<path d="M 326.621094 380.085938 L 185.378906 380.085938 C 175.628906 380.085938 167.722656 387.988281 167.722656 397.742188 L 167.722656 512.5 L 344.273438 512.5 L 344.273438 397.742188 C 344.277344 387.988281 336.371094 380.085938 326.621094 380.085938 Z M 326.621094 380.085938 " style=" stroke:none;fill-rule:nonzero;fill:rgb(10.196078%,43.529412%,69.019608%);fill-opacity:1;" />
<path d="M 432.550781 309.464844 L 432.550781 335.949219 L 379.585938 335.949219 L 379.585938 309.464844 L 256 309.464844 L 256 380.085938 L 326.621094 380.085938 C 336.371094 380.085938 344.273438 387.988281 344.273438 397.742188 L 344.273438 512.5 L 485.515625 512.5 L 485.515625 282.984375 L 432.550781 282.984375 Z M 432.550781 309.464844 " style=" stroke:none;fill-rule:nonzero;fill:rgb(58.823529%,78.431373%,93.72549%);fill-opacity:1;" />
<path d="M 132.414062 309.464844 L 132.414062 335.949219 L 79.449219 335.949219 L 79.449219 282.980469 L 26.484375 282.980469 L 26.484375 512.5 L 167.722656 512.5 L 167.722656 397.742188 C 167.722656 387.988281 175.628906 380.085938 185.378906 380.085938 L 256 380.085938 L 256 309.464844 Z M 132.414062 309.464844 " style=" stroke:none;fill-rule:nonzero;fill:rgb(47.058824%,72.54902%,92.156863%);fill-opacity:1;" />
<path d="M 79.449219 230.015625 L 132.414062 230.015625 L 132.414062 256.5 L 256 256.5 L 256 141.742188 L 97.105469 141.742188 L 256 141.742188 L 256 106.429688 L 0 106.429688 L 0 282.984375 L 79.449219 282.984375 Z M 79.449219 230.015625 " style=" stroke:none;fill-rule:nonzero;fill:rgb(35.294118%,66.666667%,90.588235%);fill-opacity:1;" />
<path d="M 379.585938 106.429688 L 256 106.429688 L 256 141.742188 L 406.066406 141.742188 L 256 141.742188 L 256 256.5 L 379.585938 256.5 L 379.585938 230.015625 L 432.550781 230.015625 L 432.550781 282.984375 L 512 282.984375 L 512 106.429688 Z M 379.585938 106.429688 " style=" stroke:none;fill-rule:nonzero;fill:rgb(47.058824%,72.54902%,92.156863%);fill-opacity:1;" />
<path d="M 406.066406 150.570312 L 97.105469 150.570312 C 92.226562 150.570312 88.277344 146.617188 88.277344 141.742188 C 88.277344 136.867188 92.230469 132.914062 97.105469 132.914062 L 406.070312 132.914062 C 410.945312 132.914062 414.894531 136.867188 414.894531 141.742188 C 414.894531 146.617188 410.945312 150.570312 406.066406 150.570312 Z M 406.066406 150.570312 " style=" stroke:none;fill-rule:nonzero;fill:rgb(11.764706%,50.588235%,80.784314%);fill-opacity:1;" />
</g>
</svg>