<svg xmlns="http://www.w3.org/2000/svg" height="511pt" version="1.1" viewBox="1 -75 511.99923 511" width="511pt">
<g id="surface1">
<path d="M 370.757812 168.222656 L 370.757812 344.777344 L 406.066406 344.777344 L 406.066406 168.222656 Z M 370.757812 168.222656 " style=" stroke:none;fill-rule:nonzero;fill:rgb(11.764706%,50.588235%,80.784314%);fill-opacity:1;" />
<path d="M 441.378906 150.570312 L 406.066406 150.570312 L 406.066406 362.429688 L 441.378906 362.429688 Z M 441.378906 150.570312 " style=" stroke:none;fill-rule:nonzero;fill:rgb(10.196078%,43.529412%,69.019608%);fill-opacity:1;" />
<path d="M 141.242188 168.222656 L 105.929688 168.222656 L 105.929688 344.777344 L 141.242188 344.777344 Z M 141.242188 168.222656 " style=" stroke:none;fill-rule:nonzero;fill:rgb(11.764706%,50.588235%,80.784314%);fill-opacity:1;" />
<path d="M 105.929688 150.570312 L 70.621094 150.570312 L 70.621094 362.429688 L 105.929688 362.429688 Z M 105.929688 150.570312 " style=" stroke:none;fill-rule:nonzero;fill:rgb(10.196078%,43.529412%,69.019608%);fill-opacity:1;" />
<path d="M 229.515625 71.121094 L 282.484375 71.121094 L 282.484375 106.429688 L 229.515625 106.429688 Z M 229.515625 71.121094 " style=" stroke:none;fill-rule:nonzero;fill:rgb(35.294118%,66.666667%,90.588235%);fill-opacity:1;" />
<path d="M 308.964844 71.121094 L 308.964844 35.808594 L 203.035156 35.808594 L 203.035156 71.121094 Z M 308.964844 71.121094 " style=" stroke:none;fill-rule:nonzero;fill:rgb(10.196078%,43.529412%,69.019608%);fill-opacity:1;" />
<path d="M 388.414062 35.808594 L 388.414062 18.15625 C 388.414062 8.402344 380.507812 0.5 370.757812 0.5 L 141.242188 0.5 C 131.492188 0.5 123.585938 8.402344 123.585938 18.15625 L 123.585938 35.808594 Z M 388.414062 35.808594 " style=" stroke:none;fill-rule:nonzero;fill:rgb(67.058824%,13.72549%,0%);fill-opacity:1;" />
<path d="M 326.621094 106.429688 L 185.378906 106.429688 L 185.378906 141.742188 L 326.621094 141.742188 Z M 326.621094 106.429688 " style=" stroke:none;fill-rule:nonzero;fill:rgb(11.764706%,50.588235%,80.784314%);fill-opacity:1;" />
<path d="M 326.621094 185.878906 L 326.621094 141.742188 L 185.378906 141.742188 L 185.378906 185.878906 L 141.242188 185.878906 L 141.242188 256.5 L 370.757812 256.5 L 370.757812 185.878906 Z M 326.621094 185.878906 " style=" stroke:none;fill-rule:nonzero;fill:rgb(47.058824%,72.54902%,92.156863%);fill-opacity:1;" />
<path d="M 141.242188 256.5 L 370.757812 256.5 L 370.757812 327.121094 L 141.242188 327.121094 Z M 141.242188 256.5 " style=" stroke:none;fill-rule:nonzero;fill:rgb(35.294118%,66.666667%,90.588235%);fill-opacity:1;" />
<path d="M 441.378906 256.5 L 512 256.5 L 512 327.121094 L 441.378906 327.121094 Z M 441.378906 256.5 " style=" stroke:none;fill-rule:nonzero;fill:rgb(35.294118%,66.666667%,90.588235%);fill-opacity:1;" />
<path d="M 441.378906 185.878906 L 512 185.878906 L 512 256.5 L 441.378906 256.5 Z M 441.378906 185.878906 " style=" stroke:none;fill-rule:nonzero;fill:rgb(47.058824%,72.54902%,92.156863%);fill-opacity:1;" />
<path d="M 0 256.5 L 70.621094 256.5 L 70.621094 327.121094 L 0 327.121094 Z M 0 256.5 " style=" stroke:none;fill-rule:nonzero;fill:rgb(35.294118%,66.666667%,90.588235%);fill-opacity:1;" />
<path d="M 0 185.878906 L 70.621094 185.878906 L 70.621094 256.5 L 0 256.5 Z M 0 185.878906 " style=" stroke:none;fill-rule:nonzero;fill:rgb(47.058824%,72.54902%,92.156863%);fill-opacity:1;" />
</g>
</svg>