<svg xmlns="http://www.w3.org/2000/svg" height="511pt" version="1.1" viewBox="1 -123 511.99996 511" width="511pt">
<g id="surface1">
<path d="M 187.320312 64.238281 C 149.410156 102.171875 149.421875 163.652344 187.351562 201.566406 C 225.28125 239.476562 286.765625 239.460938 324.679688 201.53125 C 362.578125 163.613281 362.578125 102.15625 324.679688 64.238281 C 286.722656 26.371094 225.277344 26.371094 187.320312 64.238281 Z M 282.484375 132.917969 C 282.492188 139.941406 279.699219 146.679688 274.722656 151.640625 L 321.007812 197.925781 L 274.722656 151.640625 C 264.382812 161.980469 247.617188 161.980469 237.277344 151.640625 L 190.992188 197.925781 L 237.277344 151.640625 C 226.9375 141.300781 226.9375 124.535156 237.277344 114.195312 L 190.992188 67.910156 L 237.277344 114.195312 C 247.617188 103.855469 264.382812 103.855469 274.722656 114.195312 L 321.007812 67.910156 L 274.722656 114.195312 C 279.699219 119.15625 282.488281 125.894531 282.484375 132.917969 Z M 282.484375 132.917969 " style=" stroke:none;fill-rule:nonzero;fill:rgb(47.058824%,72.54902%,92.156863%);fill-opacity:1;" />
<path d="M 0 44.644531 L 35.3125 44.644531 L 35.3125 221.195312 L 0 221.195312 Z M 0 44.644531 " style=" stroke:none;fill-rule:nonzero;fill:rgb(11.764706%,50.588235%,80.784314%);fill-opacity:1;" />
<path d="M 70.621094 26.988281 L 35.3125 26.988281 L 35.3125 238.847656 L 70.621094 238.847656 Z M 70.621094 26.988281 " style=" stroke:none;fill-rule:nonzero;fill:rgb(10.196078%,43.529412%,69.019608%);fill-opacity:1;" />
<path d="M 476.6875 44.644531 L 512 44.644531 L 512 221.195312 L 476.6875 221.195312 Z M 476.6875 44.644531 " style=" stroke:none;fill-rule:nonzero;fill:rgb(11.764706%,50.588235%,80.784314%);fill-opacity:1;" />
<path d="M 476.6875 26.988281 L 441.378906 26.988281 L 441.378906 238.847656 L 476.6875 238.847656 Z M 476.6875 26.988281 " style=" stroke:none;fill-rule:nonzero;fill:rgb(10.196078%,43.529412%,69.019608%);fill-opacity:1;" />
<path d="M 237.277344 114.195312 L 243.519531 120.4375 L 237.277344 114.195312 C 226.9375 124.539062 226.9375 141.300781 237.277344 151.640625 L 243.519531 145.402344 L 237.277344 151.640625 C 247.617188 161.980469 264.382812 161.980469 274.722656 151.640625 L 268.480469 145.402344 L 274.722656 151.640625 C 285.0625 141.300781 285.0625 124.535156 274.722656 114.195312 L 268.480469 120.4375 L 274.722656 114.195312 C 264.382812 103.855469 247.617188 103.855469 237.277344 114.195312 Z M 237.277344 114.195312 " style=" stroke:none;fill-rule:nonzero;fill:rgb(10.196078%,43.529412%,69.019608%);fill-opacity:1;" />
<path d="M 70.621094 203.539062 L 144.066406 203.539062 C 130.648438 182.433594 123.542969 157.929688 123.585938 132.917969 L 70.621094 132.917969 Z M 70.621094 203.539062 " style=" stroke:none;fill-rule:nonzero;fill:rgb(35.294118%,66.666667%,90.588235%);fill-opacity:1;" />
<path d="M 70.621094 62.296875 L 70.621094 132.917969 L 123.585938 132.917969 C 123.542969 107.90625 130.648438 83.40625 144.066406 62.296875 Z M 70.621094 62.296875 " style=" stroke:none;fill-rule:nonzero;fill:rgb(47.058824%,72.54902%,92.156863%);fill-opacity:1;" />
<path d="M 388.414062 132.917969 C 388.457031 157.929688 381.351562 182.429688 367.933594 203.539062 L 441.378906 203.539062 L 441.378906 132.917969 Z M 388.414062 132.917969 " style=" stroke:none;fill-rule:nonzero;fill:rgb(35.294118%,66.666667%,90.588235%);fill-opacity:1;" />
<path d="M 441.378906 62.296875 L 367.933594 62.296875 C 381.351562 83.40625 388.457031 107.90625 388.414062 132.917969 L 441.378906 132.917969 Z M 441.378906 62.296875 " style=" stroke:none;fill-rule:nonzero;fill:rgb(47.058824%,72.54902%,92.156863%);fill-opacity:1;" />
<path d="M 262.238281 151.644531 L 274.722656 139.160156 L 336.070312 200.507812 L 323.585938 212.992188 Z M 262.238281 151.644531 " style=" stroke:none;fill-rule:nonzero;fill:rgb(23.921569%,60.392157%,88.627451%);fill-opacity:1;" />
<path d="M 262.238281 114.191406 L 323.585938 52.84375 L 336.066406 65.328125 L 274.722656 126.675781 Z M 262.238281 114.191406 " style=" stroke:none;fill-rule:nonzero;fill:rgb(23.921569%,60.392157%,88.627451%);fill-opacity:1;" />
<path d="M 175.921875 200.507812 L 237.269531 139.160156 L 249.753906 151.644531 L 188.40625 212.992188 Z M 175.921875 200.507812 " style=" stroke:none;fill-rule:nonzero;fill:rgb(23.921569%,60.392157%,88.627451%);fill-opacity:1;" />
<path d="M 175.921875 65.328125 L 188.40625 52.84375 L 249.753906 114.191406 L 237.269531 126.675781 Z M 175.921875 65.328125 " style=" stroke:none;fill-rule:nonzero;fill:rgb(23.921569%,60.392157%,88.627451%);fill-opacity:1;" />
<path d="M 256 168.230469 C 236.5 168.230469 220.6875 152.421875 220.6875 132.917969 C 220.6875 113.417969 236.496094 97.609375 256 97.609375 C 275.5 97.609375 291.308594 113.417969 291.308594 132.917969 C 291.308594 152.421875 275.5 168.230469 256 168.230469 Z M 256 115.261719 C 246.25 115.261719 238.34375 123.167969 238.34375 132.917969 C 238.34375 142.667969 246.25 150.574219 256 150.574219 C 265.75 150.574219 273.65625 142.667969 273.65625 132.917969 C 273.65625 123.167969 265.75 115.261719 256 115.261719 Z M 256 115.261719 " style=" stroke:none;fill-rule:nonzero;fill:rgb(23.921569%,60.392157%,88.627451%);fill-opacity:1;" />
<path d="M 367.933594 62.296875 C 365.636719 58.519531 363.101562 54.894531 360.34375 51.441406 C 315.382812 -6.1875 232.21875 -16.453125 174.589844 28.507812 C 166.035156 35.183594 158.332031 42.882812 151.660156 51.441406 C 148.898438 54.894531 146.363281 58.519531 144.066406 62.296875 C 116.757812 105.417969 116.757812 160.417969 144.066406 203.539062 C 146.363281 207.316406 148.898438 210.941406 151.660156 214.398438 C 196.621094 272.023438 279.785156 282.292969 337.410156 237.332031 C 345.964844 230.65625 353.667969 222.953125 360.34375 214.398438 C 363.101562 210.941406 365.636719 207.316406 367.933594 203.539062 C 395.242188 160.417969 395.242188 105.417969 367.933594 62.296875 Z M 324.679688 201.597656 C 286.75 239.511719 225.265625 239.496094 187.355469 201.566406 C 149.441406 163.636719 149.457031 102.152344 187.386719 64.242188 C 225.304688 26.339844 286.761719 26.339844 324.679688 64.242188 C 362.546875 102.195312 362.546875 163.640625 324.679688 201.597656 Z M 324.679688 201.597656 " style=" stroke:none;fill-rule:nonzero;fill:rgb(10.196078%,43.529412%,69.019608%);fill-opacity:1;" />
</g>
</svg>