<svg xmlns="http://www.w3.org/2000/svg" height="511pt" version="1.1" viewBox="1 -57 511.99923 511" width="511pt">
<g id="surface1">
<path d="M 141.242188 203.535156 L 105.929688 203.535156 L 105.929688 380.085938 L 141.242188 380.085938 Z M 141.242188 203.535156 " style=" stroke:none;fill-rule:nonzero;fill:rgb(11.764706%,50.588235%,80.784314%);fill-opacity:1;" />
<path d="M 344.277344 177.050781 L 344.277344 141.742188 L 167.722656 141.742188 L 167.722656 177.050781 Z M 344.277344 177.050781 " style=" stroke:none;fill-rule:nonzero;fill:rgb(11.764706%,50.588235%,80.784314%);fill-opacity:1;" />
<path d="M 105.929688 185.878906 L 70.621094 185.878906 L 70.621094 397.742188 L 105.929688 397.742188 Z M 105.929688 185.878906 " style=" stroke:none;fill-rule:nonzero;fill:rgb(10.196078%,43.529412%,69.019608%);fill-opacity:1;" />
<path d="M 370.757812 203.535156 L 370.757812 380.085938 L 406.066406 380.085938 L 406.066406 203.535156 Z M 370.757812 203.535156 " style=" stroke:none;fill-rule:nonzero;fill:rgb(11.764706%,50.588235%,80.784314%);fill-opacity:1;" />
<path d="M 441.378906 185.878906 L 406.066406 185.878906 L 406.066406 397.742188 L 441.378906 397.742188 Z M 441.378906 185.878906 " style=" stroke:none;fill-rule:nonzero;fill:rgb(10.196078%,43.529412%,69.019608%);fill-opacity:1;" />
<path d="M 229.515625 88.773438 L 282.484375 88.773438 L 282.484375 141.742188 L 229.515625 141.742188 Z M 229.515625 88.773438 " style=" stroke:none;fill-rule:nonzero;fill:rgb(35.294118%,66.666667%,90.588235%);fill-opacity:1;" />
<path d="M 317.941406 88.773438 L 344.277344 71.121094 L 485.515625 71.121094 L 485.515625 26.980469 L 344.277344 26.980469 L 317.421875 44.636719 L 203.035156 44.636719 L 203.035156 88.773438 Z M 317.941406 88.773438 " style=" stroke:none;fill-rule:nonzero;fill:rgb(67.058824%,13.72549%,0%);fill-opacity:1;" />
<path d="M 282.484375 18.15625 C 282.484375 8.402344 274.578125 0.5 264.828125 0.5 L 247.171875 0.5 C 237.421875 0.5 229.515625 8.402344 229.515625 18.15625 L 229.515625 44.636719 L 282.484375 44.636719 Z M 282.484375 18.15625 " style=" stroke:none;fill-rule:nonzero;fill:rgb(35.294118%,66.666667%,90.588235%);fill-opacity:1;" />
<path d="M 326.621094 221.1875 L 326.621094 177.050781 L 185.378906 177.050781 L 185.378906 221.1875 L 141.242188 221.1875 L 141.242188 291.808594 L 370.757812 291.808594 L 370.757812 221.1875 Z M 326.621094 221.1875 " style=" stroke:none;fill-rule:nonzero;fill:rgb(47.058824%,72.54902%,92.156863%);fill-opacity:1;" />
<path d="M 141.242188 291.808594 L 370.757812 291.808594 L 370.757812 362.429688 L 141.242188 362.429688 Z M 141.242188 291.808594 " style=" stroke:none;fill-rule:nonzero;fill:rgb(35.294118%,66.666667%,90.588235%);fill-opacity:1;" />
<path d="M 0 221.1875 L 70.621094 221.1875 L 70.621094 291.808594 L 0 291.808594 Z M 0 221.1875 " style=" stroke:none;fill-rule:nonzero;fill:rgb(47.058824%,72.54902%,92.156863%);fill-opacity:1;" />
<path d="M 0 291.808594 L 70.621094 291.808594 L 70.621094 362.429688 L 0 362.429688 Z M 0 291.808594 " style=" stroke:none;fill-rule:nonzero;fill:rgb(35.294118%,66.666667%,90.588235%);fill-opacity:1;" />
<path d="M 441.378906 221.1875 L 512 221.1875 L 512 291.808594 L 441.378906 291.808594 Z M 441.378906 221.1875 " style=" stroke:none;fill-rule:nonzero;fill:rgb(47.058824%,72.54902%,92.156863%);fill-opacity:1;" />
<path d="M 441.378906 291.808594 L 512 291.808594 L 512 362.429688 L 441.378906 362.429688 Z M 441.378906 291.808594 " style=" stroke:none;fill-rule:nonzero;fill:rgb(35.294118%,66.666667%,90.588235%);fill-opacity:1;" />
</g>
</svg>