<svg xmlns="http://www.w3.org/2000/svg" height="511pt" version="1.1" viewBox="1 -123 511.99996 511" width="511pt">
<g id="surface1">
<path d="M 367.933594 62.296875 C 365.636719 58.519531 363.101562 54.894531 360.34375 51.441406 C 315.382812 -6.1875 232.21875 -16.453125 174.589844 28.507812 C 166.035156 35.183594 158.332031 42.882812 151.660156 51.441406 C 148.898438 54.894531 146.363281 58.519531 144.066406 62.296875 C 116.757812 105.417969 116.757812 160.417969 144.066406 203.539062 C 146.363281 207.316406 148.898438 210.941406 151.660156 214.398438 C 196.621094 272.023438 279.785156 282.292969 337.410156 237.332031 C 345.964844 230.65625 353.667969 222.953125 360.34375 214.398438 C 363.101562 210.941406 365.636719 207.316406 367.933594 203.539062 C 395.242188 160.417969 395.242188 105.417969 367.933594 62.296875 Z M 342.210938 177.613281 C 317.53125 225.226562 258.925781 243.816406 211.3125 219.136719 C 193.515625 209.914062 179.011719 195.40625 169.789062 177.613281 C 145.109375 130 163.699219 71.394531 211.3125 46.714844 C 258.925781 22.035156 317.53125 40.625 342.210938 88.238281 C 356.734375 116.261719 356.734375 149.589844 342.210938 177.613281 Z M 342.210938 177.613281 " style=" stroke:none;fill-rule:nonzero;fill:rgb(23.921569%,60.392157%,88.627451%);fill-opacity:1;" />
<path d="M 185.160156 174.46875 L 169.789062 177.613281 C 194.46875 225.226562 253.074219 243.816406 300.6875 219.136719 C 318.480469 209.914062 332.984375 195.40625 342.210938 177.613281 L 326.824219 174.46875 C 280.085938 164.890625 231.894531 164.890625 185.160156 174.46875 Z M 185.160156 174.46875 " style=" stroke:none;fill-rule:nonzero;fill:rgb(0%,42.745098%,94.117647%);fill-opacity:1;" />
<path d="M 187.320312 64.238281 C 157.441406 94.195312 150.355469 140.03125 169.789062 177.613281 L 185.160156 174.46875 C 231.894531 164.890625 280.089844 164.890625 326.824219 174.46875 L 342.210938 177.613281 C 366.9375 130.023438 348.402344 71.402344 300.8125 46.675781 C 263.203125 27.136719 217.265625 34.246094 187.320312 64.238281 Z M 187.320312 64.238281 " style=" stroke:none;fill-rule:nonzero;fill:rgb(76.078431%,87.45098%,96.470588%);fill-opacity:1;" />
<path d="M 0 44.644531 L 35.3125 44.644531 L 35.3125 221.195312 L 0 221.195312 Z M 0 44.644531 " style=" stroke:none;fill-rule:nonzero;fill:rgb(11.764706%,50.588235%,80.784314%);fill-opacity:1;" />
<path d="M 70.621094 26.988281 L 35.3125 26.988281 L 35.3125 238.847656 L 70.621094 238.847656 Z M 70.621094 26.988281 " style=" stroke:none;fill-rule:nonzero;fill:rgb(10.196078%,43.529412%,69.019608%);fill-opacity:1;" />
<path d="M 476.6875 44.644531 L 512 44.644531 L 512 221.195312 L 476.6875 221.195312 Z M 476.6875 44.644531 " style=" stroke:none;fill-rule:nonzero;fill:rgb(11.764706%,50.588235%,80.784314%);fill-opacity:1;" />
<path d="M 476.6875 26.988281 L 441.378906 26.988281 L 441.378906 238.847656 L 476.6875 238.847656 Z M 476.6875 26.988281 " style=" stroke:none;fill-rule:nonzero;fill:rgb(10.196078%,43.529412%,69.019608%);fill-opacity:1;" />
<path d="M 70.621094 203.539062 L 144.066406 203.539062 C 130.648438 182.433594 123.542969 157.929688 123.585938 132.917969 L 70.621094 132.917969 Z M 70.621094 203.539062 " style=" stroke:none;fill-rule:nonzero;fill:rgb(35.294118%,66.666667%,90.588235%);fill-opacity:1;" />
<path d="M 70.621094 62.296875 L 70.621094 132.917969 L 123.585938 132.917969 C 123.542969 107.90625 130.648438 83.40625 144.066406 62.296875 Z M 70.621094 62.296875 " style=" stroke:none;fill-rule:nonzero;fill:rgb(47.058824%,72.54902%,92.156863%);fill-opacity:1;" />
<path d="M 367.933594 203.539062 L 441.378906 203.539062 L 441.378906 132.917969 L 388.414062 132.917969 C 388.457031 157.929688 381.351562 182.433594 367.933594 203.539062 Z M 367.933594 203.539062 " style=" stroke:none;fill-rule:nonzero;fill:rgb(35.294118%,66.666667%,90.588235%);fill-opacity:1;" />
<path d="M 367.933594 62.296875 C 381.351562 83.40625 388.457031 107.90625 388.414062 132.917969 L 441.378906 132.917969 L 441.378906 62.296875 Z M 367.933594 62.296875 " style=" stroke:none;fill-rule:nonzero;fill:rgb(47.058824%,72.54902%,92.156863%);fill-opacity:1;" />
</g>
</svg>