<svg xmlns="http://www.w3.org/2000/svg" height="511pt" version="1.1" viewBox="1 -66 511.99999 511" width="511pt">
<g id="surface1">
<path d="M 450.207031 185.878906 L 414.894531 185.878906 L 414.894531 362.429688 L 450.207031 362.429688 Z M 450.207031 185.878906 " style=" stroke:none;fill-rule:nonzero;fill:rgb(11.764706%,50.588235%,80.784314%);fill-opacity:1;" />
<path d="M 414.894531 168.222656 L 379.585938 168.222656 L 379.585938 380.085938 L 414.894531 380.085938 Z M 414.894531 168.222656 " style=" stroke:none;fill-rule:nonzero;fill:rgb(10.196078%,43.529412%,69.019608%);fill-opacity:1;" />
<path d="M 61.792969 185.878906 L 61.792969 362.429688 L 97.105469 362.429688 L 97.105469 185.878906 Z M 61.792969 185.878906 " style=" stroke:none;fill-rule:nonzero;fill:rgb(11.764706%,50.588235%,80.784314%);fill-opacity:1;" />
<path d="M 132.414062 168.222656 L 97.105469 168.222656 L 97.105469 380.085938 L 132.414062 380.085938 Z M 132.414062 168.222656 " style=" stroke:none;fill-rule:nonzero;fill:rgb(10.196078%,43.529412%,69.019608%);fill-opacity:1;" />
<path d="M 220.691406 106.429688 L 291.308594 106.429688 L 291.308594 159.398438 L 220.691406 159.398438 Z M 220.691406 106.429688 " style=" stroke:none;fill-rule:nonzero;fill:rgb(10.196078%,43.529412%,69.019608%);fill-opacity:1;" />
<path d="M 308.964844 106.429688 L 308.964844 79.949219 L 379.585938 79.949219 L 379.585938 0.5 L 326.621094 0.5 L 317.792969 26.984375 L 194.207031 26.984375 L 185.378906 0.5 L 132.414062 0.5 L 132.414062 79.949219 L 203.035156 79.949219 L 203.035156 106.429688 Z M 308.964844 106.429688 " style=" stroke:none;fill-rule:nonzero;fill:rgb(67.058824%,13.72549%,0%);fill-opacity:1;" />
<path d="M 326.621094 203.535156 L 326.621094 159.398438 L 185.378906 159.398438 L 185.378906 203.535156 L 132.414062 203.535156 L 132.414062 274.15625 L 379.585938 274.15625 L 379.585938 203.535156 Z M 326.621094 203.535156 " style=" stroke:none;fill-rule:nonzero;fill:rgb(47.058824%,72.54902%,92.156863%);fill-opacity:1;" />
<path d="M 132.414062 274.15625 L 379.585938 274.15625 L 379.585938 344.773438 L 132.414062 344.773438 Z M 132.414062 274.15625 " style=" stroke:none;fill-rule:nonzero;fill:rgb(35.294118%,66.666667%,90.588235%);fill-opacity:1;" />
<path d="M 450.207031 203.535156 L 512 203.535156 L 512 274.15625 L 450.207031 274.15625 Z M 450.207031 203.535156 " style=" stroke:none;fill-rule:nonzero;fill:rgb(47.058824%,72.54902%,92.156863%);fill-opacity:1;" />
<path d="M 450.207031 274.15625 L 512 274.15625 L 512 344.773438 L 450.207031 344.773438 Z M 450.207031 274.15625 " style=" stroke:none;fill-rule:nonzero;fill:rgb(35.294118%,66.666667%,90.588235%);fill-opacity:1;" />
<path d="M 0 274.15625 L 61.792969 274.15625 L 61.792969 344.773438 L 0 344.773438 Z M 0 274.15625 " style=" stroke:none;fill-rule:nonzero;fill:rgb(35.294118%,66.666667%,90.588235%);fill-opacity:1;" />
<path d="M 0 203.535156 L 61.792969 203.535156 L 61.792969 274.15625 L 0 274.15625 Z M 0 203.535156 " style=" stroke:none;fill-rule:nonzero;fill:rgb(47.058824%,72.54902%,92.156863%);fill-opacity:1;" />
</g>
</svg>