<svg xmlns="http://www.w3.org/2000/svg" height="511pt" version="1.1" viewBox="1 0 511.99999 511" width="511pt">
<g id="surface1">
<path d="M 425.253906 424.5625 L 222.839844 222.148438 C 210.730469 235.5 196.050781 246.269531 179.675781 253.808594 L 437.003906 511.308594 L 474.5 473.808594 Z M 425.253906 424.5625 " style=" stroke:none;fill-rule:nonzero;fill:rgb(10.196078%,43.529412%,69.019608%);fill-opacity:1;" />
<path d="M 250.613281 175.011719 C 249.816406 177.128906 249.109375 179.339844 248.226562 181.460938 C 242.28125 196.433594 233.664062 210.203125 222.792969 222.09375 L 425.253906 424.5625 L 474.5 473.808594 L 512 436.3125 Z M 250.613281 175.011719 " style=" stroke:none;fill-rule:nonzero;fill:rgb(11.764706%,50.588235%,80.784314%);fill-opacity:1;" />
<path d="M 255.46875 110.257812 C 242.894531 38.167969 174.261719 -10.082031 102.167969 2.492188 C 55.007812 10.71875 15.949219 43.742188 0 88.882812 L 124.90625 88.882812 L 124.90625 265.554688 C 141.476562 265.5625 157.902344 262.445312 173.316406 256.367188 C 175.4375 255.574219 177.554688 254.691406 179.589844 253.804688 L 179.675781 253.804688 C 210.953125 239.367188 235.492188 213.46875 248.226562 181.457031 C 249.109375 179.339844 249.816406 177.128906 250.613281 175.011719 L 250.613281 174.921875 C 257.542969 154.097656 259.210938 131.882812 255.46875 110.257812 Z M 255.46875 110.257812 " style=" stroke:none;fill-rule:nonzero;fill:rgb(47.058824%,72.54902%,92.156863%);fill-opacity:1;" />
<path d="M 0 177.21875 C 18.714844 230.152344 68.761719 265.546875 124.90625 265.554688 L 124.90625 177.21875 Z M 0 177.21875 " style=" stroke:none;fill-rule:nonzero;fill:rgb(23.921569%,60.392157%,88.627451%);fill-opacity:1;" />
<path d="M 195.578125 141.882812 L 160.242188 141.882812 C 155.363281 141.882812 151.410156 137.929688 151.410156 133.050781 C 151.410156 128.171875 155.363281 124.21875 160.242188 124.21875 L 195.578125 124.21875 C 200.457031 124.21875 204.410156 128.171875 204.410156 133.050781 C 204.410156 137.929688 200.457031 141.882812 195.578125 141.882812 Z M 195.578125 141.882812 " style=" stroke:none;fill-rule:nonzero;fill:rgb(10.196078%,43.529412%,69.019608%);fill-opacity:1;" />
<path d="M 195.578125 115.382812 L 160.242188 115.382812 C 155.363281 115.382812 151.410156 111.429688 151.410156 106.550781 C 151.410156 101.671875 155.363281 97.714844 160.242188 97.714844 L 195.578125 97.714844 C 200.457031 97.714844 204.410156 101.671875 204.410156 106.550781 C 204.410156 111.429688 200.457031 115.382812 195.578125 115.382812 Z M 195.578125 115.382812 " style=" stroke:none;fill-rule:nonzero;fill:rgb(10.196078%,43.529412%,69.019608%);fill-opacity:1;" />
<path d="M 195.578125 88.882812 L 160.242188 88.882812 C 155.363281 88.882812 151.410156 84.925781 151.410156 80.046875 C 151.410156 75.171875 155.363281 71.214844 160.242188 71.214844 L 195.578125 71.214844 C 200.457031 71.214844 204.410156 75.171875 204.410156 80.046875 C 204.410156 84.925781 200.457031 88.882812 195.578125 88.882812 Z M 195.578125 88.882812 " style=" stroke:none;fill-rule:nonzero;fill:rgb(10.196078%,43.529412%,69.019608%);fill-opacity:1;" />
<path d="M 195.578125 168.386719 L 160.242188 168.386719 C 155.363281 168.386719 151.410156 164.429688 151.410156 159.550781 C 151.410156 154.671875 155.363281 150.71875 160.242188 150.71875 L 195.578125 150.71875 C 200.457031 150.71875 204.410156 154.671875 204.410156 159.550781 C 204.410156 164.429688 200.457031 168.386719 195.578125 168.386719 Z M 195.578125 168.386719 " style=" stroke:none;fill-rule:nonzero;fill:rgb(10.196078%,43.529412%,69.019608%);fill-opacity:1;" />
<path d="M 195.578125 194.886719 L 160.242188 194.886719 C 155.363281 194.886719 151.410156 190.929688 151.410156 186.050781 C 151.410156 181.171875 155.363281 177.21875 160.242188 177.21875 L 195.578125 177.21875 C 200.457031 177.21875 204.410156 181.175781 204.410156 186.050781 C 204.410156 190.929688 200.457031 194.886719 195.578125 194.886719 Z M 195.578125 194.886719 " style=" stroke:none;fill-rule:nonzero;fill:rgb(10.196078%,43.529412%,69.019608%);fill-opacity:1;" />
</g>
</svg>