<svg xmlns="http://www.w3.org/2000/svg" xmlns:xlink="http://www.w3.org/1999/xlink" fill='#00FF00' width='80' height='80' version="1.1" x="0px" y="0px" viewBox="0 0 10 12.5" enable-background="new 0 0 10 10" xml:space="preserve"><g><path d="M5.413,4.036L5.911,2.81C5.307,2.564,4.66,2.586,4.102,2.822l0.515,1.22c-0.245,0.103-0.451,0.3-0.559,0.566L2.832,4.109   C2.585,4.713,2.608,5.36,2.843,5.918l1.219-0.516v0.001c0.104,0.245,0.3,0.451,0.566,0.56L4.13,7.189   c0.604,0.244,1.251,0.223,1.809-0.012l-0.515-1.22c0.245-0.104,0.451-0.301,0.56-0.566L7.21,5.889   c0.246-0.604,0.224-1.251-0.011-1.809l-1.22,0.515C5.875,4.35,5.679,4.144,5.413,4.036z M5.761,5.3   C5.595,5.708,5.128,5.905,4.72,5.739C4.311,5.573,4.115,5.107,4.281,4.698C4.447,4.29,4.913,4.093,5.322,4.259   C5.73,4.426,5.927,4.891,5.761,5.3z"/><circle cx="5.021" cy="5" r="0.53"/><path d="M8.725,1.801H5.021c-0.002,0-0.004,0-0.006,0c-0.003,0-0.007,0-0.01,0C3.242,1.801,1.807,3.236,1.807,5   c0,0.416,0.082,0.83,0.239,1.213L1.303,6.205C1.257,6.203,1.214,6.221,1.182,6.254c-0.032,0.031-0.05,0.074-0.05,0.119v1.654   c0,0.094,0.075,0.17,0.168,0.17h3.704c0.002,0,0.004,0,0.006,0c0.003,0,0.006,0,0.01,0c1.763,0,3.198-1.436,3.198-3.198   c0-0.416-0.082-0.831-0.238-1.214l0.742,0.008c0.045,0.003,0.089-0.018,0.121-0.049c0.031-0.031,0.05-0.074,0.05-0.12V1.971   C8.894,1.877,8.818,1.801,8.725,1.801z M7.865,5c0,1.575-1.28,2.856-2.854,2.86C3.438,7.854,2.161,6.572,2.161,5   c0-1.575,1.28-2.856,2.854-2.86C6.588,2.145,7.865,3.425,7.865,5z M1.47,7.859V6.543l0.757,0.01C2.54,7.113,3.017,7.57,3.593,7.859   H1.47z M8.557,3.454L7.799,3.446C7.485,2.885,7.008,2.428,6.433,2.139h2.124V3.454z"/></g></svg>